<?xml version="1.0" encoding="utf-8"?>
<!-- Generator: Adobe Illustrator 16.0.0, SVG Export Plug-In . SVG Version: 6.00 Build 0)  -->
<!DOCTYPE svg PUBLIC "-//W3C//DTD SVG 1.1//EN" "http://www.w3.org/Graphics/SVG/1.1/DTD/svg11.dtd">
<svg version="1.1" id="Layer_1" xmlns="http://www.w3.org/2000/svg" xmlns:xlink="http://www.w3.org/1999/xlink" x="0px" y="0px"
	 width="30px" height="30px" viewBox="0 0 30 30" enable-background="new 0 0 30 30" xml:space="preserve">
<g>
	<path d="M14.55,26.504c-1.953,0-3.908-0.187-4.453-0.599c-0.229-0.172-0.333-0.417-0.285-0.671
		c0.183-0.973,2.495-1.856,4.084-2.354V12.016h1v10.865c4.46,1.392,4.46,2.23,4.46,2.511c0,0.151-0.059,0.436-0.45,0.631
		C18.283,26.333,16.417,26.504,14.55,26.504z M10.996,25.225c1.284,0.337,5.653,0.35,7.092,0.029
		c-0.661-0.416-2.25-1.036-3.692-1.481C12.92,24.225,11.522,24.83,10.996,25.225z"/>
</g>
<g>
	<rect x="14.095" y="20.337" width="4.149" height="1"/>
</g>
<g>
	<path d="M20.688,12.516H9.398l-0.086-0.393C8.946,10.45,7.75,4.947,7.75,4.375h1h-0.5l0.5-0.004
		c0.012,0.342,0.573,3.053,1.099,5.504h11.61L20.688,12.516z M10.203,11.516h9.734l0.188-0.641H10.064
		C10.112,11.095,10.158,11.31,10.203,11.516z"/>
</g>
</svg>
