<?xml version="1.0" encoding="utf-8"?>
<!-- Generator: Adobe Illustrator 16.0.0, SVG Export Plug-In . SVG Version: 6.00 Build 0)  -->
<!DOCTYPE svg PUBLIC "-//W3C//DTD SVG 1.1//EN" "http://www.w3.org/Graphics/SVG/1.1/DTD/svg11.dtd">
<svg version="1.1" id="Layer_1" xmlns="http://www.w3.org/2000/svg" xmlns:xlink="http://www.w3.org/1999/xlink" x="0px" y="0px"
	 width="30px" height="30px" viewBox="0 0 30 30" enable-background="new 0 0 30 30" xml:space="preserve">
<g>
	<polygon points="21.845,22.067 19.69,14.314 10.502,14.314 8.631,7.098 7.099,6.462 7.482,5.538 9.474,6.366 11.276,13.314 
		20.45,13.314 22.808,21.8 	"/>
</g>
<g>
	<rect x="9.471" y="13.717" transform="matrix(0.9775 0.2109 -0.2109 0.9775 4.0375 -1.6964)" width="1" height="8.723"/>
</g>
<g>
	<path d="M15.396,24.751c-6.637,0-9.995-5.164-10.135-5.384l0.844-0.537c0.031,0.049,3.216,4.921,9.291,4.921
		s9.259-4.872,9.291-4.921l0.844,0.537C25.391,19.587,22.033,24.751,15.396,24.751z"/>
</g>
<g>
	<rect x="10.294" y="16.077" width="10.544" height="1"/>
</g>
<g>
	<rect x="20.07" y="13.314" width="2.256" height="1"/>
</g>
</svg>
