<?xml version="1.0" encoding="utf-8"?>
<!-- Generator: Adobe Illustrator 16.0.0, SVG Export Plug-In . SVG Version: 6.00 Build 0)  -->
<!DOCTYPE svg PUBLIC "-//W3C//DTD SVG 1.1//EN" "http://www.w3.org/Graphics/SVG/1.1/DTD/svg11.dtd">
<svg version="1.1" id="Layer_1" xmlns="http://www.w3.org/2000/svg" xmlns:xlink="http://www.w3.org/1999/xlink" x="0px" y="0px"
	 width="30px" height="30px" viewBox="0 0 30 30" enable-background="new 0 0 30 30" xml:space="preserve">
<g>
	<path d="M24.345,9.84H5.655L5.472,8.875l9.345-3.662h0.365l9.345,3.662L24.345,9.84z M8.301,8.84h13.397L15,6.215L8.301,8.84z"/>
</g>
<g>
	<rect x="14.5" y="9.34" width="1" height="7.66"/>
</g>
<g>
	<rect x="9" y="16.135" width="12" height="1"/>
</g>
<g>
	<rect x="9.991" y="19.979" transform="matrix(0.5844 0.8115 -0.8115 0.5844 22.7382 -3.4408)" width="9.474" height="1"/>
</g>
<g>
	<rect x="14.475" y="15.742" transform="matrix(0.8117 0.5841 -0.5841 0.8117 14.7816 -4.8905)" width="1" height="9.474"/>
</g>
<g>
	<polygon points="20.371,24.383 19.379,24.262 19.941,19.627 20.438,19.188 25,19.188 25,14.625 26,14.625 26,19.688 25.5,20.188 
		20.881,20.188 	"/>
</g>
<g>
	<rect x="25" y="19.688" width="1" height="4.438"/>
</g>
<g>
	<polygon points="9.941,24.383 9.432,20.188 4.813,20.188 4.313,19.688 4.313,14.625 5.313,14.625 5.313,19.188 9.875,19.188 
		10.372,19.627 10.934,24.262 	"/>
</g>
<g>
	<rect x="4.313" y="19.688" width="1" height="4.438"/>
</g>
</svg>
