<?xml version="1.0" encoding="utf-8"?>
<!-- Generator: Adobe Illustrator 16.0.0, SVG Export Plug-In . SVG Version: 6.00 Build 0)  -->
<!DOCTYPE svg PUBLIC "-//W3C//DTD SVG 1.1//EN" "http://www.w3.org/Graphics/SVG/1.1/DTD/svg11.dtd">
<svg version="1.1" id="Layer_1" xmlns="http://www.w3.org/2000/svg" xmlns:xlink="http://www.w3.org/1999/xlink" x="0px" y="0px"
	 width="30px" height="30px" viewBox="0 0 30 30" enable-background="new 0 0 30 30" xml:space="preserve">
<g>
	<path d="M22.396,22.556H8.041V8.2h14.355V22.556z M9.041,21.556h12.355V9.2H9.041V21.556z"/>
</g>
<g>
	<rect x="13.629" y="8.181" transform="matrix(0.9263 0.3768 -0.3768 0.9263 6.7838 -4.2003)" width="1" height="14.122"/>
</g>
<g>
	<rect x="11.548" y="8.181" transform="matrix(0.9263 0.3768 -0.3768 0.9263 6.6305 -3.4162)" width="1" height="14.122"/>
</g>
<g>
	<rect x="18.739" y="8.181" transform="matrix(0.9262 0.3771 -0.3771 0.9262 7.1682 -6.1298)" width="1" height="14.122"/>
</g>
<g>
	<rect x="19.855" y="13.894" transform="matrix(0.9262 0.3771 -0.3771 0.9262 8.2868 -6.3479)" width="1" height="8.19"/>
</g>
<g>
	<path fill="none" stroke="#000000" stroke-miterlimit="10" d="M18.813,13.657"/>
</g>
<g>
	<rect x="5.416" y="5.913" transform="matrix(0.7071 0.7071 -0.7071 0.7071 6.4861 -2.8331)" width="2.494" height="1"/>
</g>
<g>
	<rect x="22.997" y="23.494" transform="matrix(0.7071 0.7071 -0.7071 0.7071 24.0669 -10.1153)" width="2.493" height="1"/>
</g>
<g>
	<rect x="23.744" y="5.166" transform="matrix(0.7071 0.7071 -0.7071 0.7071 11.6354 -15.2646)" width="1" height="2.493"/>
</g>
<g>
	<rect x="6.163" y="22.747" transform="matrix(0.7071 0.7071 -0.7071 0.7071 18.9176 2.3162)" width="1" height="2.493"/>
</g>
<g>
	<rect x="14.953" y="5.531" width="1" height="1.763"/>
</g>
<g>
	<rect x="14.953" y="23.112" width="1" height="1.763"/>
</g>
<g>
	<rect x="23.362" y="14.703" width="1.763" height="1"/>
</g>
<g>
	<rect x="5.781" y="14.703" width="1.763" height="1"/>
</g>
</svg>
