<?xml version="1.0" encoding="utf-8"?>
<!-- Generator: Adobe Illustrator 16.0.0, SVG Export Plug-In . SVG Version: 6.00 Build 0)  -->
<!DOCTYPE svg PUBLIC "-//W3C//DTD SVG 1.1//EN" "http://www.w3.org/Graphics/SVG/1.1/DTD/svg11.dtd">
<svg version="1.1" id="Layer_1" xmlns="http://www.w3.org/2000/svg" xmlns:xlink="http://www.w3.org/1999/xlink" x="0px" y="0px"
	 width="30px" height="30px" viewBox="0 0 30 30" enable-background="new 0 0 30 30" xml:space="preserve">
<g>
	<g>
		<polygon points="7.946,18.564 7.323,17.941 7.391,17.874 10.271,14.99 10.895,15.613 		"/>
	</g>
	<g>
		<rect x="7.809" y="10.033" transform="matrix(0.7071 0.7072 -0.7072 0.7071 10.4001 -4.1577)" width="4.819" height="0.881"/>
	</g>
	<g>
		<polygon points="16.85,23.07 16.849,23.069 16.848,23.07 16.226,22.446 19.215,19.454 19.839,20.077 		"/>
	</g>
	<g>
		<rect x="8.668" y="10.229" transform="matrix(0.7068 0.7074 -0.7074 0.7068 11.381 -2.8335)" width="0.881" height="4.17"/>
	</g>
	<g>
		<path d="M13.592,23.199h-0.016l-0.312-0.129l-0.76-0.76v-0.624l1.919-1.92l-6.384-6.384l0.623-0.623l0.019,0.018l4.134,4.132
			l1.608-1.607l-1.92-1.919v-0.623l1.92-1.92l-1.758-1.757l0.312-0.752l0.329,0.129l1.757,1.757l1.758-1.757l0.624,0.623
			l-3.99,3.989l1.608,1.608l4.151-4.151l0.624,0.623l-1.919,1.92l4.015,4.015l-0.624,0.624l-1.783-1.783l-6.072,6.072l0.448,0.447
			L13.592,23.199z M13.456,17.535l1.608,1.608l3.841-3.84l-1.607-1.609L13.456,17.535z"/>
	</g>
	<g>
		<polygon points="7.947,9.636 7.323,9.013 7.876,8.458 7.876,8.459 7.877,8.458 8.5,9.083 		"/>
	</g>
	<g>
		<rect x="16.595" y="10.411" transform="matrix(0.7072 0.707 -0.707 0.7072 13.3928 -10.6374)" width="5.889" height="0.882"/>
	</g>
	<g>
		<path d="M15.375,11.15h-0.623l-2.068-2.069l0.312-0.752h4.138l0.313,0.752L15.375,11.15z M14.059,9.211l1.004,1.005l1.005-1.005
			H14.059z"/>
	</g>
	<g>
		<path d="M21.311,13.245l-4.165-4.164l0.313-0.752h4.164l0.441,0.44v4.164L21.311,13.245z M18.522,9.211l2.658,2.659V9.211H18.522z
			"/>
	</g>
	<g>
		<path d="M14.752,15.613l-2.231-2.231v-0.623l4.301-4.301l0.312-0.129h0.325l0.312,0.129l2.069,2.069v0.623l-4.464,4.463H14.752z
			 M13.456,13.071l1.608,1.608l3.841-3.84l-1.609-1.608L13.456,13.071z"/>
	</g>
	<g>
		<path d="M21.311,17.71l-4.326-4.328v-0.623l2.23-2.232h0.624l2.096,2.095l0.129,0.312v4.465L21.311,17.71z M17.92,13.071
			l3.261,3.263v-3.218l-1.653-1.653L17.92,13.071z"/>
	</g>
	<g>
		<polygon points="7.946,9.635 7.194,9.323 7.194,8.77 7.635,8.33 8.188,8.33 8.5,9.082 		"/>
	</g>
	<g>
		<path d="M12.504,13.382L8.203,9.082L8.515,8.33h4.463l0.312,0.129l2.07,2.069v0.623l-2.232,2.232H12.504z M9.579,9.211
			l3.237,3.237l1.608-1.609l-1.628-1.628H9.579z"/>
	</g>
	<g>
		<path d="M7.946,14.098l-0.752-0.312V9.324l0.129-0.312l0.554-0.554L8.189,8.33h0.326l0.312,0.129l2.068,2.069v0.623L7.946,14.098z
			 M8.076,9.507v3.216l1.884-1.884L8.352,9.231L8.076,9.507z"/>
	</g>
	<g>
		<path d="M13.127,17.845h-0.623l-4.464-4.462v-0.623l2.231-2.232h0.623l4.465,4.463v0.623L13.127,17.845z M8.975,13.071
			l3.841,3.838l1.608-1.607l-3.841-3.839L8.975,13.071z"/>
	</g>
	<g>
		<rect x="11.737" y="12.184" transform="matrix(0.7075 0.7067 -0.7067 0.7075 12.5398 -5.0487)" width="1.264" height="0.881"/>
	</g>
	<g>
		<path d="M15.375,20.079h-0.623l-2.231-2.232v-0.624l4.464-4.463h0.624l2.23,2.232v0.623L15.375,20.079z M13.456,17.535
			l1.608,1.608l3.841-3.84l-1.607-1.609L13.456,17.535z"/>
	</g>
	<g>
		<polygon fill="none" points="19.527,19.767 19.527,19.767 19.527,19.767 		"/>
	</g>
	<g>
		<path d="M21.311,22.174l-4.326-4.327v-0.624l2.23-2.231h0.624l2.096,2.094l0.129,0.313v4.463L21.311,22.174z M17.92,17.535
			l3.261,3.263v-3.217l-1.653-1.654L17.92,17.535z"/>
	</g>
	<g>
		<path d="M16.536,23.199h-2.944L13.28,23.07l-0.76-0.759v-0.624l4.464-4.465h0.624l2.23,2.231v0.625l-2.991,2.991L16.536,23.199z
			 M13.774,22.316h2.579l2.552-2.55l-1.607-1.608l-3.841,3.841L13.774,22.316z"/>
	</g>
	<g>
		<rect x="16.834" y="18.21" transform="matrix(0.7068 0.7074 -0.7074 0.7068 18.5923 -7.5562)" width="3.156" height="0.883"/>
	</g>
	<g>
		<path d="M21.622,23.199h-3.567l-0.312-0.129l-0.759-0.759v-0.623l2.23-2.232l0.624-0.002l2.096,2.096l0.129,0.312v0.896
			L21.622,23.199z M18.238,22.316h2.942v-0.271l-1.653-1.655l-1.607,1.609L18.238,22.316z"/>
	</g>
	<g>
		<rect x="19.093" y="20.372" transform="matrix(0.7073 0.7069 -0.7069 0.7073 20.7371 -8.4523)" width="2.963" height="0.883"/>
	</g>
	<g>
		<polygon points="18.055,23.199 16.538,23.199 16.226,22.446 16.984,21.688 17.608,21.688 18.367,22.446 		"/>
	</g>
	<g>
		<rect x="17.139" y="21.938" transform="matrix(0.7071 0.7071 -0.7071 0.7071 21.0014 -5.944)" width="1.073" height="0.883"/>
	</g>
	<g>
		<path d="M7.946,18.563L7.194,18.25v-4.461l0.129-0.312l0.717-0.718h0.623l2.231,2.231v0.623L7.946,18.563z M8.076,13.971v3.216
			l1.884-1.885l-1.608-1.607L8.076,13.971z"/>
	</g>
	<g>
		<polygon fill="none" points="10.583,19.767 10.583,19.767 10.583,19.767 		"/>
	</g>
	<g>
		<path d="M12.505,22.311l-4.464-4.464l0-0.623l2.231-2.233h0.624l4.465,4.464v0.625l-2.231,2.231H12.505z M8.975,17.535l3.841,3.84
			l1.608-1.608l-3.841-3.841L8.975,17.535z"/>
	</g>
	<g>
		<path d="M7.946,23.049l-0.752-0.313v-4.461l0.129-0.313l0.717-0.718h0.623l2.231,2.23v0.625L7.946,23.049z M8.076,18.458v3.214
			l1.884-1.884l-1.608-1.607L8.076,18.458z"/>
	</g>
	<g>
		<rect x="7.889" y="18.21" transform="matrix(0.7069 0.7073 -0.7073 0.7069 15.9677 -1.2297)" width="3.156" height="0.882"/>
	</g>
	<g>
		<path d="M13.576,23.199l-5.961-0.031l-0.303-0.753l2.959-2.961h0.623l2.993,2.992L13.576,23.199z M8.667,22.309l0.454,0.008h3.391
			l-0.007-0.006l-1.922-1.921L8.667,22.309z"/>
	</g>
	<g>
		<polygon points="12.504,22.312 10.271,20.079 10.895,19.454 13.128,21.687 13.127,21.688 		"/>
	</g>
</g>
</svg>
