<?xml version="1.0" encoding="utf-8"?>
<!-- Generator: Adobe Illustrator 16.0.0, SVG Export Plug-In . SVG Version: 6.00 Build 0)  -->
<!DOCTYPE svg PUBLIC "-//W3C//DTD SVG 1.1//EN" "http://www.w3.org/Graphics/SVG/1.1/DTD/svg11.dtd">
<svg version="1.1" id="Layer_1" xmlns="http://www.w3.org/2000/svg" xmlns:xlink="http://www.w3.org/1999/xlink" x="0px" y="0px"
	 width="30px" height="30px" viewBox="0 0 30 30" enable-background="new 0 0 30 30" xml:space="preserve">
<g>
	<path d="M23.625,26.75h-16V2.875h16V26.75z M8.625,25.75h14V3.875h-14V25.75z"/>
</g>
<g>
	<rect x="15.25" y="7.75" width="7.875" height="1"/>
</g>
<g>
	<rect x="15.25" y="12.167" width="7.875" height="1"/>
</g>
<g>
	<rect x="15.25" y="16.583" width="7.875" height="1"/>
</g>
<g>
	<rect x="8.125" y="21" width="15" height="1"/>
</g>
<g>
	<rect x="14.75" y="3.375" width="1" height="18.125"/>
</g>
<g>
	<polygon points="13.292,21.5 12.292,21.5 12.292,16.417 10.625,16.417 10.625,21.5 9.625,21.5 9.625,15.417 13.292,15.417 	"/>
</g>
<g>
	<polygon points="21.021,17.083 20.021,17.083 20.021,15.313 18.354,15.313 18.354,17.083 17.354,17.083 17.354,14.313 
		21.021,14.313 	"/>
</g>
<g>
	<polygon points="21.021,8.25 20.021,8.25 20.021,6.479 18.354,6.479 18.354,8.25 17.354,8.25 17.354,5.479 21.021,5.479 	"/>
</g>
</svg>
