<?xml version="1.0" encoding="utf-8"?>
<!-- Generator: Adobe Illustrator 16.0.0, SVG Export Plug-In . SVG Version: 6.00 Build 0)  -->
<!DOCTYPE svg PUBLIC "-//W3C//DTD SVG 1.1//EN" "http://www.w3.org/Graphics/SVG/1.1/DTD/svg11.dtd">
<svg version="1.1" id="Layer_1" xmlns="http://www.w3.org/2000/svg" xmlns:xlink="http://www.w3.org/1999/xlink" x="0px" y="0px"
	 width="30px" height="30px" viewBox="0 0 30 30" enable-background="new 0 0 30 30" xml:space="preserve">
<g>
	<path d="M25.709,24.25h-7.938v-8.542H5.583v8.042h-1v-9.042h21.125V24.25z M18.771,23.25h5.938v-7.542h-5.938V23.25z"/>
</g>
<g>
	<rect x="18.271" y="17.625" width="6.938" height="1"/>
</g>
<g>
	<rect x="18.271" y="20.542" width="6.938" height="1"/>
</g>
<g>
	<rect x="20.896" y="16.188" width="1.688" height="1"/>
</g>
<g>
	<rect x="20.896" y="19" width="1.688" height="1"/>
</g>
<g>
	<rect x="20.896" y="21.813" width="1.688" height="1"/>
</g>
<g>
	<polygon points="14.313,15 13.313,15 13.313,14.375 8.313,14.375 8.313,15 7.313,15 7.313,13.375 14.313,13.375 	"/>
</g>
<g>
	<rect x="10.521" y="4.182" transform="matrix(0.5202 0.854 -0.854 0.5202 11.6498 -5.8384)" width="1.001" height="6.536"/>
</g>
<g>
	<rect x="7.163" y="11.65" transform="matrix(0.6345 0.7729 -0.7729 0.6345 12.825 -2.8217)" width="4.465" height="1"/>
</g>
<g>
	<path d="M7.375,11.453c-0.974,0-1.766-0.792-1.766-1.766s0.792-1.766,1.766-1.766s1.766,0.792,1.766,1.766
		S8.349,11.453,7.375,11.453z M7.375,8.922c-0.422,0-0.766,0.343-0.766,0.766s0.343,0.766,0.766,0.766s0.766-0.343,0.766-0.766
		S7.797,8.922,7.375,8.922z"/>
</g>
<g>
	<path d="M17.178,7.344h-2.271c-0.879,0-1.594-0.715-1.594-1.594s0.715-1.594,1.594-1.594h2.271c0.879,0,1.594,0.715,1.594,1.594
		S18.057,7.344,17.178,7.344z M14.906,5.156c-0.327,0-0.594,0.267-0.594,0.594s0.267,0.594,0.594,0.594h2.271
		c0.327,0,0.594-0.267,0.594-0.594s-0.267-0.594-0.594-0.594H14.906z"/>
</g>
</svg>
