<?xml version="1.0" encoding="utf-8"?>
<!-- Generator: Adobe Illustrator 16.0.0, SVG Export Plug-In . SVG Version: 6.00 Build 0)  -->
<!DOCTYPE svg PUBLIC "-//W3C//DTD SVG 1.1//EN" "http://www.w3.org/Graphics/SVG/1.1/DTD/svg11.dtd">
<svg version="1.1" id="Layer_1" xmlns="http://www.w3.org/2000/svg" xmlns:xlink="http://www.w3.org/1999/xlink" x="0px" y="0px"
	 width="30px" height="30px" viewBox="0 0 30 30" enable-background="new 0 0 30 30" xml:space="preserve">
<g>
	<rect x="4.313" y="13.25" width="20.563" height="1"/>
</g>
<g>
	<rect x="6.75" y="13.75" width="1" height="11.188"/>
</g>
<g>
	<rect x="21.438" y="13.75" width="1" height="11.188"/>
</g>
<g>
	<rect x="8.594" y="12.943" transform="matrix(0.7071 0.7071 -0.7071 0.7071 13.7638 -1.8323)" width="1" height="5.51"/>
</g>
<g>
	<rect x="17.234" y="15.198" transform="matrix(0.7071 0.7071 -0.7071 0.7071 16.9551 -9.5366)" width="5.51" height="1"/>
</g>
<g>
	<path d="M13.75,14.125H9.411V9.349c0-0.908,0.327-1.573,0.929-1.912V4.625h2.458v2.796c0.617,0.334,0.952,1.004,0.952,1.927V14.125
		z M10.411,13.125h2.339V9.349c0-0.94-0.446-1.071-0.593-1.115l-0.359-0.105V5.625H11.34v2.506l-0.351,0.11
		c-0.143,0.045-0.579,0.182-0.579,1.108V13.125z"/>
</g>
<g>
	<path d="M18.363,14.25h-2.891l-0.492-4.208h4.285L18.363,14.25z M16.362,13.25h1.192l0.474-2.208h-1.925L16.362,13.25z"/>
</g>
</svg>
