<?xml version="1.0" encoding="utf-8"?>
<!-- Generator: Adobe Illustrator 16.0.0, SVG Export Plug-In . SVG Version: 6.00 Build 0)  -->
<!DOCTYPE svg PUBLIC "-//W3C//DTD SVG 1.1//EN" "http://www.w3.org/Graphics/SVG/1.1/DTD/svg11.dtd">
<svg version="1.1" id="Layer_1" xmlns="http://www.w3.org/2000/svg" xmlns:xlink="http://www.w3.org/1999/xlink" x="0px" y="0px"
	 width="30px" height="30px" viewBox="0 0 30 30" enable-background="new 0 0 30 30" xml:space="preserve">
<g>
	<path d="M22.649,22.648H7.351V7.351h15.298V22.648z M8.351,21.648h13.298V8.351H8.351V21.648z"/>
</g>
<g>
	<rect x="12.063" y="7.851" width="1" height="14.297"/>
</g>
<g>
	<rect x="17" y="7.851" width="1" height="14.297"/>
</g>
<g>
	<polygon points="17.506,12.523 12.567,10.439 8.053,12.435 7.649,11.52 12.558,9.35 17.494,11.432 21.945,9.438 22.354,10.351 	"/>
</g>
<g>
	<polygon points="17.506,15.231 12.567,13.147 8.053,15.144 7.649,14.229 12.558,12.059 17.494,14.141 21.945,12.147 22.354,13.06 	
		"/>
</g>
<g>
	<polygon points="17.506,17.94 12.567,15.856 8.053,17.853 7.649,16.938 12.558,14.767 17.494,16.851 21.945,14.855 22.354,15.768 	
		"/>
</g>
<g>
	<polygon points="17.506,20.649 12.567,18.565 8.053,20.562 7.649,19.647 12.558,17.476 17.494,19.56 21.945,17.564 22.354,18.477 	
		"/>
</g>
</svg>
