<?xml version="1.0" encoding="utf-8"?>
<!-- Generator: Adobe Illustrator 16.0.0, SVG Export Plug-In . SVG Version: 6.00 Build 0)  -->
<!DOCTYPE svg PUBLIC "-//W3C//DTD SVG 1.1//EN" "http://www.w3.org/Graphics/SVG/1.1/DTD/svg11.dtd">
<svg version="1.1" id="Layer_1" xmlns="http://www.w3.org/2000/svg" xmlns:xlink="http://www.w3.org/1999/xlink" x="0px" y="0px"
	 width="30px" height="30px" viewBox="0 0 30 30" enable-background="new 0 0 30 30" xml:space="preserve">
<g>
	<path d="M14.945,13.912c-1.205,0-2.185-0.98-2.185-2.185c0-1.206,0.98-2.186,2.185-2.186c1.204,0,2.185,0.98,2.185,2.186
		C17.13,12.932,16.149,13.912,14.945,13.912z M14.945,10.541c-0.653,0-1.185,0.532-1.185,1.186c0,0.653,0.532,1.185,1.185,1.185
		s1.185-0.532,1.185-1.185C16.13,11.073,15.599,10.541,14.945,10.541z"/>
</g>
<g>
	<path d="M10.083,20.459c-1.205,0-2.186-0.98-2.186-2.185c0-1.205,0.98-2.186,2.186-2.186s2.185,0.98,2.185,2.186
		C12.268,19.479,11.288,20.459,10.083,20.459z M10.083,17.089c-0.654,0-1.186,0.532-1.186,1.186s0.532,1.185,1.186,1.185
		c0.653,0,1.185-0.531,1.185-1.185S10.736,17.089,10.083,17.089z"/>
</g>
<g>
	<path d="M19.426,20.459c-1.205,0-2.186-0.98-2.186-2.185c0-1.205,0.98-2.186,2.186-2.186c1.204,0,2.185,0.98,2.185,2.186
		C21.61,19.479,20.63,20.459,19.426,20.459z M19.426,17.089c-0.653,0-1.186,0.532-1.186,1.186s0.532,1.185,1.186,1.185
		s1.185-0.531,1.185-1.185S20.079,17.089,19.426,17.089z"/>
</g>
</svg>
