<?xml version="1.0" encoding="utf-8"?>
<!-- Generator: Adobe Illustrator 16.0.0, SVG Export Plug-In . SVG Version: 6.00 Build 0)  -->
<!DOCTYPE svg PUBLIC "-//W3C//DTD SVG 1.1//EN" "http://www.w3.org/Graphics/SVG/1.1/DTD/svg11.dtd">
<svg version="1.1" id="Layer_1" xmlns="http://www.w3.org/2000/svg" xmlns:xlink="http://www.w3.org/1999/xlink" x="0px" y="0px"
	 width="50px" height="50px" viewBox="0 0 50 50" enable-background="new 0 0 50 50" xml:space="preserve">
<g>
	<path d="M46.625,25c0-3.051-2.45-5.541-5.485-5.604c-0.22-0.635-0.474-1.252-0.761-1.848c2.098-2.192,2.068-5.683-0.087-7.84
		c-1.06-1.058-2.467-1.641-3.964-1.641c-1.456,0-2.827,0.551-3.876,1.555c-0.595-0.287-1.213-0.542-1.848-0.761
		C30.54,5.825,28.051,3.375,25,3.375s-5.54,2.45-5.604,5.486c-0.636,0.219-1.254,0.474-1.849,0.761
		c-1.048-1.004-2.419-1.556-3.875-1.556c-1.498,0-2.905,0.583-3.963,1.642c-1.059,1.059-1.643,2.467-1.643,3.964
		c0,1.456,0.551,2.827,1.555,3.875c-0.287,0.594-0.541,1.212-0.761,1.847c-3.036,0.064-5.486,2.553-5.486,5.604
		s2.45,5.541,5.486,5.605c0.219,0.635,0.474,1.253,0.761,1.849c-2.098,2.191-2.069,5.682,0.086,7.839
		c1.059,1.059,2.467,1.642,3.964,1.642c1.456,0,2.827-0.552,3.875-1.555c0.595,0.287,1.213,0.541,1.848,0.761
		c0.063,3.035,2.553,5.485,5.604,5.485s5.54-2.45,5.604-5.485c0.634-0.219,1.252-0.474,1.848-0.761
		c1.048,1.004,2.419,1.555,3.876,1.555c1.497,0,2.905-0.583,3.964-1.642c2.155-2.157,2.184-5.647,0.087-7.84
		c0.287-0.596,0.542-1.214,0.761-1.848C44.175,30.54,46.625,28.051,46.625,25z M40.41,28.605c-0.442,0-0.832,0.291-0.958,0.715
		c-0.298,0.999-0.692,1.958-1.174,2.85c-0.21,0.389-0.14,0.87,0.174,1.183l0.426,0.425c1.405,1.406,1.405,3.694,0,5.101
		c-1.362,1.361-3.741,1.36-5.1,0.001l-0.426-0.427c-0.313-0.314-0.795-0.385-1.183-0.174c-0.892,0.481-1.851,0.876-2.85,1.174
		c-0.424,0.126-0.715,0.516-0.715,0.958v0.609c0,1.988-1.617,3.605-3.605,3.605s-3.605-1.617-3.605-3.605V40.41
		c0-0.442-0.291-0.832-0.714-0.958c-1.001-0.299-1.959-0.693-2.848-1.174c-0.15-0.081-0.313-0.12-0.475-0.12
		c-0.259,0-0.515,0.101-0.707,0.293l-0.428,0.427c-1.362,1.362-3.738,1.36-5.099,0c-1.406-1.406-1.406-3.694,0-5.101l0.426-0.426
		c0.313-0.313,0.383-0.793,0.173-1.182c-0.48-0.89-0.875-1.849-1.173-2.851c-0.126-0.424-0.516-0.714-0.958-0.714H8.981
		c-1.989,0-3.606-1.618-3.606-3.606s1.618-3.605,3.606-3.605H9.59c0.442,0,0.832-0.291,0.958-0.714
		c0.299-1.002,0.694-1.96,1.174-2.848c0.21-0.389,0.14-0.869-0.172-1.182l-0.427-0.427c-0.681-0.681-1.056-1.587-1.056-2.55
		s0.375-1.869,1.057-2.55c1.362-1.362,3.735-1.363,5.1,0.001l0.427,0.426c0.312,0.313,0.792,0.381,1.182,0.172
		c0.887-0.479,1.845-0.875,2.848-1.173c0.424-0.126,0.714-0.516,0.714-0.958V8.981c0-1.989,1.617-3.606,3.605-3.606
		s3.605,1.618,3.605,3.606V9.59c0,0.442,0.29,0.832,0.714,0.958c1.002,0.298,1.961,0.693,2.851,1.173
		c0.389,0.211,0.868,0.141,1.182-0.173l0.426-0.426c1.362-1.362,3.735-1.364,5.101-0.001c1.405,1.406,1.405,3.694,0,5.1
		l-0.427,0.427c-0.313,0.313-0.383,0.793-0.173,1.182c0.48,0.89,0.876,1.849,1.174,2.849c0.126,0.424,0.516,0.714,0.958,0.714h0.609
		c1.988,0,3.605,1.617,3.605,3.605s-1.617,3.605-3.605,3.605H40.41z"/>
	<path d="M25,16.125c-4.894,0-8.875,3.981-8.875,8.875s3.981,8.875,8.875,8.875s8.875-3.981,8.875-8.875S29.894,16.125,25,16.125z
		 M25,31.875c-3.791,0-6.875-3.084-6.875-6.875s3.084-6.875,6.875-6.875s6.875,3.084,6.875,6.875S28.791,31.875,25,31.875z"/>
</g>
</svg>
