<?xml version="1.0" encoding="utf-8"?>
<!-- Generator: Adobe Illustrator 16.0.0, SVG Export Plug-In . SVG Version: 6.00 Build 0)  -->
<!DOCTYPE svg PUBLIC "-//W3C//DTD SVG 1.1//EN" "http://www.w3.org/Graphics/SVG/1.1/DTD/svg11.dtd">
<svg version="1.1" id="Layer_1" xmlns="http://www.w3.org/2000/svg" xmlns:xlink="http://www.w3.org/1999/xlink" x="0px" y="0px"
	 width="50px" height="50px" viewBox="0 0 50 50" enable-background="new 0 0 50 50" xml:space="preserve">
<g>
	<path fill="none" d="M39.746,37.961V28.43c0-7.979-6.491-14.469-14.469-14.469c-7.979,0-14.469,6.491-14.469,14.469v9.531H39.746z"
		/>
	<path fill="none" d="M25,11.96c1.695,0,3.074-1.379,3.074-3.074c0-1.695-1.379-3.074-3.074-3.074c-1.695,0-3.074,1.379-3.074,3.074
		C21.926,10.582,23.305,11.96,25,11.96z"/>
	<path fill="none" d="M25.277,44.188c2.54,0,4.658-1.822,5.125-4.227H20.151C20.62,42.365,22.737,44.188,25.277,44.188z"/>
	<path d="M44.689,37.961h-2.943V28.43c0-7.904-5.599-14.521-13.038-16.104c0.841-0.906,1.366-2.108,1.366-3.439
		c0-2.798-2.276-5.074-5.074-5.074c-2.798,0-5.074,2.276-5.074,5.074c0,1.385,0.561,2.64,1.463,3.557
		C14.182,14.197,8.808,20.689,8.808,28.43v9.531H5.311c-0.552,0-1,0.447-1,1s0.448,1,1,1h12.817
		c0.489,3.512,3.504,6.227,7.149,6.227c3.645,0,6.66-2.715,7.15-6.227h12.263c0.553,0,1-0.447,1-1S45.242,37.961,44.689,37.961z
		 M25,5.813c1.695,0,3.074,1.379,3.074,3.074c0,1.695-1.379,3.074-3.074,3.074c-1.695,0-3.074-1.379-3.074-3.074
		C21.926,7.191,23.305,5.813,25,5.813z M10.808,28.43c0-7.979,6.491-14.469,14.469-14.469c7.978,0,14.469,6.491,14.469,14.469v9.531
		H10.808V28.43z M25.277,44.188c-2.54,0-4.657-1.822-5.125-4.227h10.251C29.935,42.365,27.816,44.188,25.277,44.188z"/>
</g>
</svg>
