<?xml version="1.0" encoding="utf-8"?>
<!-- Generator: Adobe Illustrator 16.0.0, SVG Export Plug-In . SVG Version: 6.00 Build 0)  -->
<!DOCTYPE svg PUBLIC "-//W3C//DTD SVG 1.1//EN" "http://www.w3.org/Graphics/SVG/1.1/DTD/svg11.dtd">
<svg version="1.1" id="Layer_1" xmlns="http://www.w3.org/2000/svg" xmlns:xlink="http://www.w3.org/1999/xlink" x="0px" y="0px"
	 width="50px" height="50px" viewBox="0 0 50 50" enable-background="new 0 0 50 50" xml:space="preserve">
<g>
	<path fill="#2149F2" d="M25,11.501c4.104,0,8.205-0.005,12.307,0.003c1.654,0.003,2.963,0.671,3.688,2.191
		c0.271,0.568,0.418,1.254,0.425,1.887c0.033,4.616,0.023,9.23,0.014,13.846c-0.004,2.389-1.69,4.068-4.078,4.079
		c-3.092,0.011-6.188,0.009-9.278-0.007c-0.339,0-0.478,0.104-0.606,0.423c-0.52,1.265-1.033,2.534-1.658,3.745
		c-0.572,1.109-1.055,1.109-1.625,0c-0.63-1.227-1.142-2.516-1.673-3.791c-0.118-0.281-0.242-0.377-0.545-0.373
		c-3.109,0.012-6.218,0.018-9.327,0c-1.656-0.008-2.949-0.711-3.664-2.232c-0.262-0.558-0.396-1.226-0.4-1.844
		c-0.033-4.615-0.025-9.231-0.015-13.846c0.005-2.388,1.691-4.072,4.081-4.078C16.764,11.494,20.882,11.501,25,11.501z
		 M35.835,20.269c-0.562-0.187-1.081-0.497-1.603-0.506c-2.02-0.037-3.278,1.654-2.854,3.731c0.403,1.961,2.327,2.836,4.093,1.864
		c0.116-0.064,0.236-0.123,0.372-0.192c0.035,1.283-0.116,1.441-1.719,1.85c0,0.558,0,1.107,0,1.719
		c1.099-0.057,2.187,0.02,2.89-0.998c0.455-0.653,0.719-1.389,0.725-2.2c0.014-1.697,0.029-3.394,0.044-5.09
		c0-0.155-0.013-0.308-0.021-0.475c-0.649,0-1.255,0-1.875,0C35.863,20.101,35.844,20.22,35.835,20.269z M14.343,25.193
		c1.095,0.881,2.467,0.856,3.462-0.023c1.039-0.918,1.302-2.709,0.567-3.919c-0.386-0.634-0.923-1.102-1.63-1.349
		c-0.866-0.304-1.656-0.073-2.461,0.45c0-1.017,0-1.955,0-2.916c-0.618,0-1.188,0-1.773,0c0,2.75,0,5.473,0,8.195
		c0.614,0,1.184,0,1.766,0C14.297,25.48,14.317,25.358,14.343,25.193z M26.865,25.866c0.24-0.015,0.4-0.021,0.558-0.032
		c1.585-0.115,2.621-1.05,2.841-2.559c0.209-1.442-0.598-2.763-2.016-3.28c-0.741-0.272-1.5-0.306-2.268-0.121
		c-1.458,0.348-2.354,1.53-2.327,3.054c0.028,1.555,0.871,2.574,2.381,2.859C26.334,25.846,26.643,25.846,26.865,25.866z
		 M22.305,25.534c0-1.814,0.003-3.571-0.001-5.329c-0.001-0.982-0.433-1.8-1.078-2.487c-0.441-0.469-1.068-0.588-1.734-0.632
		c0,0.648,0,1.25,0,1.855c0.761,0.311,0.872,0.474,0.872,1.331c0.002,1.585,0.001,3.168,0.001,4.751c0,0.167,0,0.336,0,0.512
		C21.043,25.534,21.645,25.534,22.305,25.534z"/>
	<path fill="#2149F2" d="M33.368,22.768c0.008-0.881,0.438-1.306,1.305-1.293c0.726,0.012,1.199,0.517,1.197,1.277
		c-0.004,0.666-0.579,1.343-1.134,1.331C33.841,24.061,33.359,23.599,33.368,22.768z"/>
	<path fill="#2149F2" d="M14.236,22.782c0.005-0.878,0.479-1.354,1.329-1.34c0.729,0.014,1.234,0.554,1.23,1.316
		c-0.002,0.649-0.584,1.333-1.134,1.336C14.752,24.1,14.231,23.62,14.236,22.782z"/>
	<path fill="#2149F2" d="M25.682,22.796c-0.002-0.878,0.465-1.359,1.313-1.354c0.729,0.007,1.237,0.537,1.245,1.302
		c0.008,0.642-0.571,1.342-1.119,1.351C26.215,24.111,25.684,23.629,25.682,22.796z"/>
</g>
</svg>
