<?xml version="1.0" encoding="utf-8"?>
<!-- Generator: Adobe Illustrator 16.0.0, SVG Export Plug-In . SVG Version: 6.00 Build 0)  -->
<!DOCTYPE svg PUBLIC "-//W3C//DTD SVG 1.1//EN" "http://www.w3.org/Graphics/SVG/1.1/DTD/svg11.dtd">
<svg version="1.1" id="Layer_1" xmlns="http://www.w3.org/2000/svg" xmlns:xlink="http://www.w3.org/1999/xlink" x="0px" y="0px"
	 width="50px" height="50px" viewBox="0 0 50 50" enable-background="new 0 0 50 50" xml:space="preserve">
<g>
	<path fill="#5C82E7" d="M25.621,43.783h-1.242L6.534,29.635C3.394,27.356,1.5,23.652,1.5,19.75C1.5,12.996,6.995,7.5,13.75,7.5
		c2.626,0,5.133,0.828,7.258,2.396L25,12.255l3.992-2.36l0.001,0.001C31.117,8.329,33.624,7.5,36.25,7.5
		c6.755,0,12.25,5.495,12.25,12.25c0,3.9-1.894,7.604-5.064,9.908L25.621,43.783z M13.75,9.5C8.098,9.5,3.5,14.099,3.5,19.75
		c0,3.263,1.586,6.363,4.243,8.292L25,41.724l17.229-13.657c2.688-1.955,4.271-5.055,4.271-8.316c0-5.652-4.598-10.25-10.25-10.25
		c-2.23,0-4.358,0.715-6.154,2.068l-0.212-0.165l0.125,0.212l-4.5,2.661h-1.018l-4.504-2.661l0.123-0.207l-0.212,0.154
		C18.103,10.214,15.977,9.5,13.75,9.5z"/>
</g>
</svg>
