<?xml version="1.0" encoding="utf-8"?>
<!-- Generator: Adobe Illustrator 16.0.0, SVG Export Plug-In . SVG Version: 6.00 Build 0)  -->
<!DOCTYPE svg PUBLIC "-//W3C//DTD SVG 1.1//EN" "http://www.w3.org/Graphics/SVG/1.1/DTD/svg11.dtd">
<svg version="1.1" id="Layer_1" xmlns="http://www.w3.org/2000/svg" xmlns:xlink="http://www.w3.org/1999/xlink" x="0px" y="0px"
	 width="50px" height="50px" viewBox="0 0 50 50" enable-background="new 0 0 50 50" xml:space="preserve">
<circle fill="#5C82E7" cx="25" cy="25" r="22.688"/>
<path fill="#FFFFFF" d="M42.469,23.233c0-4.824-3.909-8.734-8.734-8.734c-2.316,0-4.419,0.909-5.982,2.382l0.005-0.009l-2.758,1.969
	l-2.757-1.969l0.001,0.005c-1.563-1.47-3.662-2.378-5.978-2.378c-4.824,0-8.735,3.911-8.735,8.734c0,2.771,1.294,5.235,3.307,6.835
	l-0.002,0.003l0.246,0.181c0.109,0.081,0.215,0.164,0.328,0.24L25,40.5l13.582-10.001c0.155-0.104,0.304-0.219,0.451-0.333
	l0.131-0.095l-0.003-0.002C41.176,28.47,42.469,26.005,42.469,23.233z"/>
</svg>
