<?xml version="1.0" encoding="utf-8"?>
<!-- Generator: Adobe Illustrator 16.0.0, SVG Export Plug-In . SVG Version: 6.00 Build 0)  -->
<!DOCTYPE svg PUBLIC "-//W3C//DTD SVG 1.1//EN" "http://www.w3.org/Graphics/SVG/1.1/DTD/svg11.dtd">
<svg version="1.1" id="Layer_1" xmlns="http://www.w3.org/2000/svg" xmlns:xlink="http://www.w3.org/1999/xlink" x="0px" y="0px"
	 width="50px" height="50px" viewBox="0 0 50 50" enable-background="new 0 0 50 50" xml:space="preserve">
<circle fill="#5C82E7" cx="25" cy="25" r="22.688"/>
<g>
	<path fill="#FFFFFF" d="M22.385,13.399l-0.032,0.032h-1.501c-0.716,2.344,0.13,3.896,0.13,3.896l-0.036,0.01
		c0.365,0.864,0.198,1.899-0.506,2.604c-0.927,0.927-2.431,0.927-3.359,0c-0.385-0.386-0.601-0.872-0.666-1.374l-0.005,0.001
		c-0.312-2.544,0.02-4.357,0.216-5.138H13.9l0,8.423l0.031,0L13.9,21.885l17.943,17.942l8.485-8.484L22.385,13.399z"/>
	<path fill="#FFFFFF" d="M17.713,18.215c0.042,0.132,0.088,0.243,0.138,0.32c0.191,0.298,0.513,0.46,0.843,0.46
		c0.185,0,0.372-0.051,0.539-0.158c0.39-0.25,0.532-0.722,0.397-1.143c-0.015-0.046-0.017-0.093-0.038-0.137
		C19.47,17.118,19.292,14.9,20.117,13c0.052-0.119,0.094-0.241,0.154-0.357c0.571-1.105,1.437-1.844,2.575-2.197
		c0.527-0.163,0.823-0.723,0.659-1.251c-0.163-0.528-0.725-0.823-1.251-0.659c-1.963,0.608-3.403,2.032-4.166,4.118
		c-0.042,0.114-0.069,0.23-0.105,0.345C17.326,15.055,17.411,17.277,17.713,18.215z"/>
</g>
</svg>
