<?xml version="1.0" encoding="utf-8"?>
<!-- Generator: Adobe Illustrator 16.0.0, SVG Export Plug-In . SVG Version: 6.00 Build 0)  -->
<!DOCTYPE svg PUBLIC "-//W3C//DTD SVG 1.1//EN" "http://www.w3.org/Graphics/SVG/1.1/DTD/svg11.dtd">
<svg version="1.1" id="Layer_1" xmlns="http://www.w3.org/2000/svg" xmlns:xlink="http://www.w3.org/1999/xlink" x="0px" y="0px"
	 width="50px" height="50px" viewBox="0 0 50 50" enable-background="new 0 0 50 50" xml:space="preserve">
<g>
	<path fill="none" d="M33.846,40.387c0,0.553-0.447,1-1,1h-3.599c0.441,1.581,1.879,2.752,3.599,2.752
		c2.069,0,3.753-1.684,3.753-3.752s-1.684-3.752-3.753-3.752c-1.72,0-3.157,1.171-3.599,2.752h3.599
		C33.398,39.387,33.846,39.834,33.846,40.387z"/>
	<polygon fill="none" points="12.564,10.571 12.564,13.389 40.302,19.636 40.302,16.69 	"/>
	<path d="M41.518,14.91L12.183,8.439L9.539,4.322C9.241,3.857,8.623,3.723,8.157,4.021C7.693,4.319,7.558,4.938,7.856,5.403
		l2.708,4.217v13.911c0,0.552,0.448,1,1,1s1-0.448,1-1v-8.092l27.737,6.247v1.154c-0.003,0.146-0.11,3.595-3.044,3.783
		c-3.87,0.251-24.909,2.559-25.802,2.656c-0.439,0.049-0.795,0.379-0.875,0.814c-0.037,0.2-0.867,4.948,1.899,8.267
		c1.368,1.641,3.351,2.608,5.891,2.912c-0.401,1.641-1.873,2.866-3.635,2.866c-2.069,0-3.752-1.684-3.752-3.752c0-0.553-0.448-1-1-1
		s-1,0.447-1,1c0,3.172,2.581,5.752,5.752,5.752c2.83,0,5.184-2.056,5.659-4.752h6.792c0.476,2.696,2.829,4.752,5.658,4.752
		c3.172,0,5.753-2.58,5.753-5.752s-2.581-5.752-5.753-5.752c-2.829,0-5.183,2.056-5.658,4.752H20.15
		c-2.789,0-4.85-0.773-6.127-2.299c-1.609-1.922-1.646-4.627-1.555-5.907c3.964-0.434,21.512-2.341,24.918-2.562
		c3.796-0.244,4.875-3.859,4.915-5.758v-6.975C42.302,15.417,41.976,15.011,41.518,14.91z M32.846,36.635
		c2.069,0,3.753,1.684,3.753,3.752s-1.684,3.752-3.753,3.752c-1.72,0-3.157-1.171-3.599-2.752h3.599c0.553,0,1-0.447,1-1
		s-0.447-1-1-1h-3.599C29.688,37.806,31.126,36.635,32.846,36.635z M12.564,13.389v-2.818l27.737,6.119v2.946L12.564,13.389z"/>
</g>
</svg>
