<?xml version="1.0" encoding="utf-8"?>
<!-- Generator: Adobe Illustrator 16.0.0, SVG Export Plug-In . SVG Version: 6.00 Build 0)  -->
<!DOCTYPE svg PUBLIC "-//W3C//DTD SVG 1.1//EN" "http://www.w3.org/Graphics/SVG/1.1/DTD/svg11.dtd">
<svg version="1.1" id="Layer_1" xmlns="http://www.w3.org/2000/svg" xmlns:xlink="http://www.w3.org/1999/xlink" x="0px" y="0px"
	 width="100px" height="100px" viewBox="0 0 100 100" enable-background="new 0 0 100 100" xml:space="preserve">
<g>
	<path d="M71.545,69.236H60.13v-3.113h11.415c7.141,0,10.008-10.786,10.036-10.896c1.446-11.922-12.42-14.321-13.009-14.417
		c-0.44-0.07-0.826-0.329-1.063-0.703c-0.24-0.375-0.305-0.836-0.183-1.262c0.024-0.091,2.526-9.074-1.459-15.379
		c-2.025-3.199-5.436-5.22-10.142-6.004c-4.931-0.821-8.837-0.024-11.646,2.363c-5.059,4.302-5.089,12.481-5.089,12.563
		c0.004,0.751-0.529,1.398-1.267,1.539c-0.749,0.13-1.472-0.271-1.739-0.964c-0.025-0.058-0.72-1.699-2.626-2.362
		c-1.921-0.666-4.557-0.115-7.615,1.599c-2.229,1.247-3.5,2.794-3.888,4.733c-0.688,3.43,1.69,7.406,2.666,8.646
		c0.365,0.468,0.432,1.104,0.172,1.639c-0.258,0.535-0.799,0.875-1.395,0.878c-0.38,0.003-9.343,0.146-9.343,8.56
		c0,8.607,7.609,9.442,7.932,9.473l13.729-0.005v3.113H21.738c-3.867-0.368-10.896-3.46-10.896-12.581
		c0-7.551,5.445-10.557,9.786-11.401c-1.167-2.137-2.511-5.516-1.826-8.932c0.571-2.842,2.392-5.144,5.42-6.84
		c3.948-2.209,7.387-2.821,10.235-1.793c0.688,0.246,1.283,0.572,1.793,0.93c0.578-3.271,2.049-7.957,5.798-11.151
		c3.538-3.021,8.317-4.059,14.187-3.076c5.628,0.938,9.756,3.437,12.272,7.428c3.648,5.792,2.813,13.056,2.187,16.256
		c6.177,1.544,15.291,6.701,13.938,17.73C84.457,56.548,81.073,69.236,71.545,69.236z"/>
</g>
<g>
	<polygon points="47.667,85.967 53.844,76.111 41.648,76.111 	"/>
</g>
<g>
	<rect x="46.129" y="48.418" width="3.113" height="29.832"/>
</g>
</svg>
