<?xml version="1.0" encoding="utf-8"?>
<!-- Generator: Adobe Illustrator 16.0.0, SVG Export Plug-In . SVG Version: 6.00 Build 0)  -->
<!DOCTYPE svg PUBLIC "-//W3C//DTD SVG 1.1//EN" "http://www.w3.org/Graphics/SVG/1.1/DTD/svg11.dtd">
<svg version="1.1" id="Layer_1" xmlns="http://www.w3.org/2000/svg" xmlns:xlink="http://www.w3.org/1999/xlink" x="0px" y="0px"
	 width="100px" height="100px" viewBox="0 0 100 100" enable-background="new 0 0 100 100" xml:space="preserve">
<g>
	<path d="M85.649,57.72h-7.19v-3.352h7.19c0.504,0,0.913-0.409,0.913-0.912V17.991c0-0.502-0.409-0.912-0.913-0.912H29.374
		c-0.502,0-0.912,0.409-0.912,0.912v7.466H25.11v-7.466c0-2.35,1.914-4.263,4.264-4.263h56.275c2.351,0,4.266,1.913,4.266,4.263
		v35.465C89.915,55.808,88,57.72,85.649,57.72z"/>
</g>
<g>
	<path d="M27.897,85.764c-1.389,0-2.792-1.07-2.792-3.463v-5.865H13.663c-2.35,0-4.263-1.911-4.263-4.262V34.122
		c0-2.35,1.913-4.263,4.263-4.263h56.276c2.35,0,4.265,1.913,4.265,4.263v38.052c0,2.351-1.915,4.262-4.265,4.262H39.562
		l-9.167,8.226C29.58,85.395,28.741,85.764,27.897,85.764z M13.663,33.21c-0.502,0-0.912,0.409-0.912,0.912v38.052
		c0,0.501,0.409,0.91,0.912,0.91h14.795v8.812l9.821-8.812h31.66c0.504,0,0.913-0.409,0.913-0.91V34.122
		c0-0.502-0.409-0.912-0.913-0.912H13.663z"/>
</g>
<g>
	<rect x="21.688" y="43.056" width="40.012" height="3.352"/>
</g>
<g>
	<rect x="21.688" y="50.597" width="40.012" height="3.352"/>
</g>
<g>
	<rect x="21.688" y="58.767" width="30.794" height="3.353"/>
</g>
</svg>
