<?xml version="1.0" encoding="utf-8"?>
<!-- Generator: Adobe Illustrator 16.0.0, SVG Export Plug-In . SVG Version: 6.00 Build 0)  -->
<!DOCTYPE svg PUBLIC "-//W3C//DTD SVG 1.1//EN" "http://www.w3.org/Graphics/SVG/1.1/DTD/svg11.dtd">
<svg version="1.1" id="Layer_1" xmlns="http://www.w3.org/2000/svg" xmlns:xlink="http://www.w3.org/1999/xlink" x="0px" y="0px"
	 width="100px" height="100px" viewBox="0 0 100 100" enable-background="new 0 0 100 100" xml:space="preserve">
<g>
	<path d="M73.858,80.297H24.562c-2.54,0-4.608-2.068-4.608-4.609V26.391c0-2.542,2.068-4.608,4.608-4.608h27.256v3.18H24.562
		c-0.789,0-1.429,0.641-1.429,1.428v49.297c0,0.789,0.64,1.43,1.429,1.43h49.296c0.789,0,1.43-0.641,1.43-1.43V49.604h3.18v26.083
		C78.468,78.229,76.399,80.297,73.858,80.297z"/>
</g>
<g>
	<polygon points="83.616,38.079 80.437,38.079 80.437,17.212 59.37,17.212 59.37,14.032 83.616,14.032 	"/>
</g>
<g>
	<rect x="63.356" y="8.793" transform="matrix(0.7071 0.7071 -0.7071 0.7071 42.7388 -36.1001)" width="3.179" height="49.495"/>
</g>
</svg>
