<?xml version="1.0" encoding="utf-8"?>
<!-- Generator: Adobe Illustrator 16.0.0, SVG Export Plug-In . SVG Version: 6.00 Build 0)  -->
<!DOCTYPE svg PUBLIC "-//W3C//DTD SVG 1.1//EN" "http://www.w3.org/Graphics/SVG/1.1/DTD/svg11.dtd">
<svg version="1.1" id="Layer_1" xmlns="http://www.w3.org/2000/svg" xmlns:xlink="http://www.w3.org/1999/xlink" x="0px" y="0px"
	 width="50px" height="50px" viewBox="0 0 50 50" enable-background="new 0 0 50 50" xml:space="preserve">
<path fill="#303030" d="M25,3.667C13.218,3.667,3.667,13.218,3.667,25c0,11.782,9.551,21.333,21.333,21.333
	c11.782,0,21.333-9.551,21.333-21.333C46.333,13.218,36.782,3.667,25,3.667z M25,42.333c-9.573,0-17.333-7.76-17.333-17.333
	c0-9.573,7.76-17.333,17.333-17.333c9.573,0,17.333,7.76,17.333,17.333C42.333,34.573,34.573,42.333,25,42.333z"/>
<path fill-rule="evenodd" clip-rule="evenodd" fill="#303030" d="M23.921,20.502c1.201,0,2.402,0,3.604,0
	c0.541,0,1.13,0.539,1.092,1.088c-0.063,0.916-0.152,1.834-0.306,2.74c-0.497,2.974-1.039,5.943-1.538,8.917
	c-0.085,0.509-0.089,1.048-0.027,1.561c0.102,0.804,0.579,1.109,1.365,0.918c0.404-0.098,0.785-0.289,1.186-0.408
	c0.388-0.116,0.782-0.234,1.182-0.275c0.374-0.038,0.566,0.204,0.438,0.556c-0.116,0.318-0.293,0.643-0.523,0.888
	c-1.199,1.277-2.667,1.991-4.439,2.076c-1.031,0.051-2.053,0.066-3.054-0.216c-1.695-0.479-2.838-2.224-2.566-3.955
	c0.5-3.176,1.028-6.346,1.534-9.521c0.069-0.436,0.104-0.881,0.108-1.322c0.007-0.624-0.236-0.912-0.849-1.059
	c-0.352-0.084-0.711-0.129-1.062-0.213c-0.19-0.046-0.378-0.122-0.552-0.213c-0.363-0.188-0.517-0.471-0.456-0.784
	c0.063-0.325,0.371-0.612,0.74-0.647c0.417-0.041,0.837-0.065,1.256-0.068c0.956-0.01,1.912-0.004,2.869-0.004
	C23.921,20.541,23.921,20.522,23.921,20.502z"/>
<path fill-rule="evenodd" clip-rule="evenodd" fill="#303030" d="M25.924,18.906c-2.006,0-3.519-1.5-3.506-3.526
	c0.013-2.193,1.626-3.471,3.483-3.547c1.931-0.079,3.513,1.588,3.505,3.556C29.4,17.382,27.892,18.905,25.924,18.906z"/>
</svg>
