<?xml version="1.0" encoding="utf-8"?>
<!-- Generator: Adobe Illustrator 16.0.0, SVG Export Plug-In . SVG Version: 6.00 Build 0)  -->
<!DOCTYPE svg PUBLIC "-//W3C//DTD SVG 1.1//EN" "http://www.w3.org/Graphics/SVG/1.1/DTD/svg11.dtd">
<svg version="1.1" id="Layer_1" xmlns="http://www.w3.org/2000/svg" xmlns:xlink="http://www.w3.org/1999/xlink" x="0px" y="0px"
	 width="50px" height="50px" viewBox="0 0 50 50" enable-background="new 0 0 50 50" xml:space="preserve">
<g>
	<path fill="#2149F2" d="M33.823,42H14.677c-4.371,0-7.927-3.557-7.927-7.927V14.927C6.75,10.556,10.306,7,14.677,7h19.146
		c4.37,0,7.927,3.556,7.927,7.927v19.146C41.75,38.443,38.193,42,33.823,42z M14.677,10c-2.717,0-4.927,2.21-4.927,4.927v19.146
		C9.75,36.79,11.96,39,14.677,39h19.146c2.717,0,4.927-2.21,4.927-4.927V14.927c0-2.717-2.21-4.927-4.927-4.927H14.677z"/>
</g>
<g>
	<circle fill="#2149F2" cx="32.375" cy="15.125" r="2.375"/>
</g>
<g>
	<path fill="#2149F2" d="M24.25,33.625c-5.032,0-9.125-4.094-9.125-9.125c0-5.032,4.093-9.125,9.125-9.125
		c5.031,0,9.125,4.093,9.125,9.125C33.375,29.531,29.281,33.625,24.25,33.625z M24.25,18.375c-3.377,0-6.125,2.748-6.125,6.125
		s2.748,6.125,6.125,6.125s6.125-2.748,6.125-6.125S27.627,18.375,24.25,18.375z"/>
</g>
</svg>
