<?xml version="1.0" encoding="utf-8"?>
<!-- Generator: Adobe Illustrator 16.0.0, SVG Export Plug-In . SVG Version: 6.00 Build 0)  -->
<!DOCTYPE svg PUBLIC "-//W3C//DTD SVG 1.1//EN" "http://www.w3.org/Graphics/SVG/1.1/DTD/svg11.dtd">
<svg version="1.1" id="Layer_1" xmlns="http://www.w3.org/2000/svg" xmlns:xlink="http://www.w3.org/1999/xlink" x="0px" y="0px"
	 width="50px" height="50px" viewBox="0 0 50 50" enable-background="new 0 0 50 50" xml:space="preserve">
<g>
	<path fill="#2149F2" d="M15.639,34.438c-0.865-0.56-1.723-1.051-2.512-1.636c-2.937-2.173-4.979-4.944-5.451-8.655
		c-0.502-3.947,0.924-7.241,3.696-9.97c3.196-3.146,7.153-4.689,11.56-5.079c5.399-0.478,10.386,0.693,14.664,4.164
		c6.398,5.191,6.443,13.621,0.092,18.882c-4.151,3.439-9.029,4.644-14.33,4.265c-1.013-0.072-1.811,0.097-2.644,0.702
		c-1.763,1.281-3.6,2.462-5.434,3.642c-0.305,0.195-0.749,0.174-1.128,0.252c-0.01-0.385-0.108-0.794-0.015-1.151
		C14.609,38.045,15.131,36.251,15.639,34.438z M21.166,25.66c1.542,0,1.487,0.035,2.185,1.126c0.199,0.313,0.813,0.36,1.237,0.53
		c0.149-0.396,0.518-0.867,0.411-1.174c-0.768-2.212-1.576-4.416-2.486-6.573c-0.455-1.076-1.882-1.118-2.335-0.059
		c-0.947,2.215-1.763,4.489-2.556,6.765c-0.092,0.264,0.259,0.953,0.481,0.99c0.366,0.063,1.084-0.173,1.148-0.414
		C19.563,25.67,20.34,25.518,21.166,25.66z M33.331,24.055c0.11-0.02,0.224-0.039,0.334-0.059c0.694,0.915,1.394,1.826,2.081,2.746
		c0.393,0.523,0.893,0.83,1.479,0.414c0.619-0.443,0.385-1.012,0.008-1.518c-0.609-0.818-1.215-1.642-1.851-2.438
		c-0.344-0.431-0.327-0.754,0.082-1.133c0.599-0.554,1.207-1.114,1.702-1.755c0.182-0.234,0.199-0.897,0.029-1.031
		c-0.264-0.208-0.779-0.233-1.137-0.14c-0.287,0.074-0.504,0.435-0.746,0.674c-0.633,0.626-1.267,1.255-1.898,1.882
		c-0.098-0.041-0.193-0.081-0.289-0.122c0-0.635,0.107-1.296-0.041-1.895c-0.087-0.353-0.587-0.848-0.889-0.838
		c-0.313,0.011-0.862,0.54-0.873,0.858c-0.076,2.243-0.077,4.491-0.002,6.733c0.01,0.322,0.541,0.857,0.854,0.875
		c0.298,0.019,0.753-0.459,0.911-0.817c0.165-0.375,0.039-0.871,0.075-1.311C33.193,24.804,33.273,24.431,33.331,24.055z
		 M14.491,23.802c0,0.749,0.014,1.498-0.005,2.245c-0.016,0.666,0.063,1.311,0.887,1.33c0.913,0.023,0.945-0.682,0.939-1.368
		c-0.009-1.123-0.017-2.246,0.004-3.368c0.012-0.638-0.087-1.366,0.19-1.876c0.152-0.278,1.02-0.099,1.498-0.291
		c0.346-0.139,0.742-0.516,0.811-0.85c0.046-0.221-0.439-0.787-0.703-0.797c-1.798-0.073-3.602-0.072-5.4-0.001
		c-0.25,0.01-0.669,0.539-0.666,0.825c0.003,0.282,0.4,0.621,0.702,0.817c0.196,0.128,0.531,0.075,0.8,0.052
		c0.696-0.06,0.995,0.212,0.952,0.936C14.453,22.235,14.489,23.02,14.491,23.802z M27.7,25.639c0-0.541,0-0.908,0-1.277
		c-0.002-1.499,0.003-2.997-0.007-4.496c-0.004-0.636-0.313-1.075-0.969-1.077c-0.649-0.001-0.971,0.414-0.971,1.065
		c0,2.112,0.002,4.224-0.003,6.335c-0.002,0.662,0.315,1.045,0.972,1.063c1.021,0.029,2.051,0.08,3.06-0.029
		c0.348-0.037,0.645-0.531,0.964-0.814c-0.313-0.258-0.596-0.667-0.946-0.736C29.184,25.551,28.523,25.639,27.7,25.639z"/>
	<path fill="#2149F2" d="M20.267,23.997c0.339-0.972,0.634-1.816,0.928-2.661c0.075-0.007,0.149-0.015,0.225-0.021
		c0.303,0.854,0.605,1.708,0.951,2.683C21.606,23.997,21.024,23.997,20.267,23.997z"/>
</g>
</svg>
