<?xml version="1.0" encoding="utf-8"?>
<!-- Generator: Adobe Illustrator 16.0.0, SVG Export Plug-In . SVG Version: 6.00 Build 0)  -->
<!DOCTYPE svg PUBLIC "-//W3C//DTD SVG 1.1//EN" "http://www.w3.org/Graphics/SVG/1.1/DTD/svg11.dtd">
<svg version="1.1" id="Layer_1" xmlns="http://www.w3.org/2000/svg" xmlns:xlink="http://www.w3.org/1999/xlink" x="0px" y="0px"
	 width="50px" height="50px" viewBox="0 0 50 50" enable-background="new 0 0 50 50" xml:space="preserve">
<g>
	<path fill="#108EFF" d="M23.306,47.063h-2.06c-7.168,0-13-5.832-13-13V18.23c0-7.168,5.832-13,13-13h2.06c7.168,0,13,5.832,13,13
		c0,0.552-0.447,1-1,1s-1-0.448-1-1c0-6.066-4.935-11-11-11h-2.06c-6.065,0-11,4.935-11,11v15.833c0,6.065,4.935,11,11,11h2.06
		c6.065,0,11-4.935,11-11c0-0.553,0.447-1,1-1s1,0.447,1,1C36.306,41.231,30.474,47.063,23.306,47.063z"/>
</g>
<g>
	<path fill="#108EFF" d="M44.746,27.146h-22.47c-0.552,0-1-0.447-1-1c0-0.552,0.448-1,1-1h20.664l-2.541-4.053
		c-0.293-0.468-0.151-1.085,0.316-1.378c0.467-0.294,1.084-0.152,1.379,0.316l3.5,5.584c0.192,0.309,0.203,0.697,0.027,1.016
		S45.109,27.146,44.746,27.146z"/>
</g>
</svg>
