<?xml version="1.0" encoding="utf-8"?>
<!-- Generator: Adobe Illustrator 16.0.0, SVG Export Plug-In . SVG Version: 6.00 Build 0)  -->
<!DOCTYPE svg PUBLIC "-//W3C//DTD SVG 1.1//EN" "http://www.w3.org/Graphics/SVG/1.1/DTD/svg11.dtd">
<svg version="1.1" id="Layer_1" xmlns="http://www.w3.org/2000/svg" xmlns:xlink="http://www.w3.org/1999/xlink" x="0px" y="0px"
	 width="400px" height="107px" viewBox="0 0 400 107" enable-background="new 0 0 400 107" xml:space="preserve">
<g>
	<path fill="#0089EF" d="M26.063,18.263c0,1.188-0.236,2.249-0.709,3.188c-0.473,0.939-1.07,1.659-1.792,2.161
		c-0.603,0.428-1.258,0.703-1.968,0.826c-0.709,0.123-1.464,0.184-2.264,0.184h-3.631V11.879h3.6c0.816,0,1.58,0.057,2.291,0.171
		c0.712,0.114,1.379,0.391,2.003,0.83c0.764,0.536,1.366,1.259,1.808,2.169C25.843,15.959,26.063,17.03,26.063,18.263z
		 M23.071,18.237c0-0.838-0.131-1.556-0.394-2.152c-0.263-0.596-0.667-1.063-1.212-1.399c-0.395-0.24-0.809-0.371-1.243-0.394
		c-0.434-0.022-0.952-0.034-1.555-0.034h-0.054v7.976h0.054c0.655,0,1.207-0.013,1.656-0.039c0.449-0.026,0.876-0.178,1.282-0.458
		c0.478-0.331,0.842-0.787,1.091-1.369C22.946,19.786,23.071,19.076,23.071,18.237z"/>
	<path fill="#0089EF" d="M37.582,24.621h-2.915v-5.647h-3.966v5.647h-2.915V11.879h2.915v4.664h3.966v-4.664h2.915V24.621z"/>
	<path fill="#0089EF" d="M52.403,24.621h-7.746V11.879h2.915V22.19h4.832L52.403,24.621L52.403,24.621z"/>
	<path fill="#0089EF" d="M56.44,13.642h-2.883v-2.336h2.883V13.642z M56.362,24.621h-2.728v-9.61h2.728V24.621z"/>
	<path fill="#0089EF" d="M66.641,15.011l-3.14,9.61h-2.977l-3.117-9.61h2.868l1.792,6.358l1.769-6.358H66.641z"/>
	<path fill="#0089EF" d="M70.491,13.642h-2.883v-2.336h2.883V13.642z M70.413,24.621h-2.728v-9.61h2.728V24.621z"/>
	<path fill="#0089EF" d="M80.699,24.621h-2.743v-4.766c0-0.388-0.014-0.774-0.042-1.16c-0.029-0.385-0.082-0.669-0.16-0.852
		c-0.094-0.217-0.229-0.372-0.405-0.466c-0.177-0.094-0.413-0.141-0.709-0.141c-0.223,0-0.449,0.046-0.678,0.137
		s-0.473,0.237-0.732,0.437v6.812h-2.728v-9.61h2.728v1.063c0.446-0.417,0.881-0.742,1.305-0.976
		c0.423-0.234,0.892-0.351,1.407-0.351c0.893,0,1.577,0.31,2.049,0.929c0.473,0.619,0.709,1.516,0.709,2.691L80.699,24.621
		L80.699,24.621z"/>
	<path fill="#0089EF" d="M90.674,23.517c0,0.89-0.117,1.646-0.351,2.268c-0.233,0.622-0.553,1.107-0.958,1.455
		c-0.405,0.354-0.891,0.609-1.457,0.766c-0.566,0.157-1.195,0.235-1.886,0.235c-0.582,0-1.134-0.042-1.656-0.124
		c-0.522-0.083-0.976-0.178-1.36-0.287v-2.405h0.319c0.135,0.057,0.295,0.12,0.479,0.188c0.184,0.068,0.37,0.131,0.557,0.188
		c0.223,0.063,0.441,0.114,0.655,0.154c0.213,0.04,0.431,0.06,0.654,0.06c0.462,0,0.848-0.053,1.157-0.159
		c0.309-0.106,0.542-0.255,0.698-0.449c0.156-0.2,0.265-0.435,0.327-0.706c0.063-0.271,0.094-0.612,0.094-1.022V23.5
		c-0.307,0.297-0.661,0.535-1.064,0.715c-0.403,0.18-0.817,0.27-1.243,0.27c-1.133,0-2.007-0.405-2.623-1.215
		c-0.616-0.81-0.923-2.042-0.923-3.697c0-0.753,0.095-1.429,0.284-2.028c0.19-0.599,0.454-1.109,0.791-1.532
		c0.322-0.405,0.712-0.717,1.169-0.937c0.457-0.22,0.933-0.33,1.426-0.33c0.447,0,0.847,0.063,1.2,0.188s0.675,0.294,0.966,0.505
		l0.101-0.428h2.642v8.506H90.674z M87.947,21.591v-4.355c-0.135-0.068-0.302-0.125-0.499-0.171
		c-0.197-0.045-0.395-0.068-0.592-0.068c-0.654,0-1.147,0.232-1.477,0.698c-0.33,0.465-0.495,1.114-0.495,1.946
		c0,0.417,0.025,0.769,0.074,1.057c0.049,0.288,0.142,0.543,0.277,0.766c0.129,0.217,0.3,0.381,0.51,0.492
		c0.21,0.111,0.479,0.167,0.807,0.167c0.244,0,0.484-0.046,0.721-0.137C87.509,21.894,87.733,21.763,87.947,21.591z"/>
	<path fill="#0089EF" d="M102.597,24.869c-1.741,0-3.123-0.578-4.146-1.733c-1.023-1.155-1.535-2.779-1.535-4.873
		c0-2.02,0.513-3.629,1.539-4.831c1.026-1.201,2.409-1.801,4.15-1.801c0.462,0,0.878,0.029,1.247,0.085
		c0.369,0.057,0.722,0.137,1.06,0.24c0.265,0.085,0.553,0.203,0.865,0.351s0.563,0.276,0.756,0.385v3.038h-0.296
		c-0.14-0.137-0.317-0.301-0.53-0.492c-0.213-0.191-0.455-0.378-0.725-0.562c-0.271-0.183-0.568-0.338-0.893-0.466
		c-0.325-0.128-0.664-0.192-1.017-0.192c-0.421,0-0.807,0.073-1.157,0.218c-0.351,0.146-0.685,0.397-1.001,0.757
		c-0.291,0.325-0.529,0.765-0.713,1.318c-0.184,0.554-0.276,1.207-0.276,1.959c0,0.793,0.096,1.459,0.288,1.999
		c0.192,0.539,0.444,0.974,0.756,1.305c0.301,0.32,0.638,0.551,1.009,0.693s0.742,0.214,1.11,0.214c0.385,0,0.751-0.07,1.099-0.21
		s0.642-0.295,0.88-0.466c0.26-0.177,0.488-0.356,0.686-0.539c0.197-0.183,0.369-0.345,0.514-0.488h0.265v2.995
		c-0.213,0.108-0.46,0.232-0.74,0.372c-0.281,0.14-0.569,0.258-0.865,0.355c-0.364,0.12-0.704,0.211-1.021,0.273
		C103.589,24.837,103.153,24.869,102.597,24.869z"/>
	<path fill="#0089EF" d="M112.915,23.603c-0.187,0.171-0.354,0.325-0.503,0.462c-0.148,0.137-0.347,0.274-0.596,0.411
		c-0.244,0.131-0.482,0.231-0.713,0.299c-0.231,0.069-0.555,0.103-0.97,0.103c-0.774,0-1.417-0.285-1.929-0.856
		c-0.512-0.57-0.768-1.289-0.768-2.156c0-0.713,0.13-1.289,0.39-1.729c0.26-0.439,0.634-0.787,1.122-1.044
		c0.494-0.262,1.083-0.445,1.769-0.548c0.686-0.103,1.423-0.182,2.213-0.239v-0.052c0-0.53-0.178-0.897-0.534-1.1
		c-0.356-0.202-0.89-0.304-1.601-0.304c-0.322,0-0.699,0.064-1.13,0.193c-0.431,0.128-0.852,0.292-1.262,0.492h-0.234v-2.319
		c0.27-0.085,0.707-0.187,1.309-0.304c0.603-0.117,1.21-0.175,1.824-0.175c1.507,0,2.604,0.275,3.292,0.826
		c0.688,0.55,1.033,1.391,1.033,2.52v6.538h-2.712V23.603z M112.915,22.113v-2.002c-0.462,0.051-0.836,0.096-1.122,0.133
		s-0.566,0.11-0.842,0.218c-0.239,0.091-0.425,0.229-0.557,0.415c-0.133,0.186-0.199,0.432-0.199,0.74
		c0,0.451,0.11,0.76,0.331,0.928c0.221,0.168,0.547,0.252,0.978,0.252c0.239,0,0.483-0.06,0.732-0.18
		C112.486,22.499,112.712,22.33,112.915,22.113z"/>
	<path fill="#0089EF" d="M123.521,17.843h-0.226c-0.104-0.04-0.254-0.07-0.452-0.09c-0.198-0.02-0.416-0.03-0.655-0.03
		c-0.286,0-0.586,0.046-0.9,0.137c-0.314,0.091-0.62,0.2-0.916,0.325v6.435h-2.728v-9.61h2.728v1.378
		c0.125-0.125,0.297-0.284,0.518-0.475c0.221-0.191,0.422-0.343,0.604-0.458c0.197-0.131,0.427-0.244,0.689-0.338
		c0.262-0.094,0.511-0.142,0.744-0.142c0.088,0,0.188,0.003,0.296,0.009c0.109,0.006,0.208,0.014,0.296,0.025v2.834H123.521z"/>
	<path fill="#0089EF" d="M129.046,24.877c-1.652,0-2.918-0.434-3.799-1.301c-0.88-0.867-1.321-2.102-1.321-3.705
		c0-1.569,0.41-2.821,1.231-3.757c0.821-0.937,1.969-1.403,3.444-1.403c1.34,0,2.348,0.396,3.023,1.189s1.013,1.928,1.013,3.406
		v1.078h-5.977c0.026,0.445,0.111,0.817,0.257,1.117s0.338,0.538,0.577,0.714c0.234,0.177,0.507,0.304,0.818,0.381
		c0.312,0.077,0.652,0.116,1.021,0.116c0.317,0,0.628-0.039,0.935-0.116c0.307-0.077,0.587-0.178,0.842-0.304
		c0.223-0.108,0.43-0.225,0.62-0.351c0.189-0.125,0.344-0.237,0.463-0.334h0.289v2.473c-0.224,0.097-0.428,0.187-0.612,0.27
		c-0.185,0.083-0.438,0.167-0.76,0.252c-0.296,0.085-0.602,0.152-0.916,0.201C129.881,24.853,129.498,24.877,129.046,24.877z
		 M129.95,18.579c-0.016-0.633-0.149-1.115-0.401-1.446s-0.638-0.497-1.157-0.497c-0.53,0-0.944,0.174-1.243,0.522
		c-0.299,0.348-0.463,0.822-0.495,1.42L129.95,18.579L129.95,18.579z"/>
</g>
<rect x="139.667" y="18.683" fill="#0089EF" width="246" height="2"/>
<g>
	<path fill="#0089EF" d="M42.519,59.143c0,2.143-1.301,3.979-3.903,5.512c-2.602,1.531-5.746,2.297-9.432,2.297h-3.849V88.51h2.764
		v1.383H13.68V88.51h2.765V37.696H13.68v-1.382h15.503c3.686,0,6.83,0.766,9.432,2.297c2.602,1.533,3.903,3.37,3.903,5.512
		L42.519,59.143L42.519,59.143z M20.89,88.509V37.696h-2.222v50.813H20.89z M33.628,62.505V40.759c0-0.846-0.434-1.569-1.301-2.167
		c-0.868-0.597-1.916-0.896-3.144-0.896h-3.849v27.872h3.849c1.228,0,2.276-0.299,3.144-0.896
		C33.195,64.074,33.628,63.352,33.628,62.505z M38.073,60.338V42.927c0-2.068-1.319-3.674-3.957-4.82
		c1.156,0.922,1.735,2.167,1.735,3.736v19.578c0,1.569-0.579,2.813-1.735,3.736C36.754,64.012,38.073,62.405,38.073,60.338z"/>
	<path fill="#0089EF" d="M74.717,89.893H60.298v-1.384h2.765l-2.005-15.543h-7.969l-2.222,15.543h2.764v1.384h-8.348v-1.384h2.765
		l7.806-52.195h8.89l7.209,52.195h2.764V89.893L74.717,89.893z M60.949,71.621l-3.687-28.956l-4.065,28.956H60.949z M67.507,88.509
		l-6.993-50.813h-2.222l6.993,50.813H67.507z"/>
	<path fill="#0089EF" d="M108.542,89.893h-3.849c-5.204,0-7.806-1.869-7.806-5.604V65.344c0-0.846-0.434-1.568-1.301-2.167
		c-0.868-0.598-1.916-0.896-3.144-0.896h-3.849V88.51h2.764v1.383H76.939V88.51h2.765V37.696h-2.765v-1.382h15.503
		c3.686,0,6.83,0.766,9.432,2.297c2.602,1.533,3.903,3.37,3.903,5.512v10.35c0,3.338-2.584,5.703-7.752,7.1
		c5.167,1.494,7.752,3.873,7.752,7.136v17.747c0,1.37,0.849,2.055,2.547,2.055h0.217L108.542,89.893L108.542,89.893z M84.149,88.509
		V37.696h-2.222v50.813H84.149z M96.888,57.834V40.759c0-0.846-0.434-1.569-1.301-2.167c-0.868-0.597-1.916-0.896-3.144-0.896
		h-3.849v23.202h3.849c1.228,0,2.276-0.299,3.144-0.896C96.454,59.402,96.888,58.682,96.888,57.834z M101.333,55.705V42.927
		c0-2.068-1.319-3.674-3.957-4.82c1.156,0.922,1.735,2.167,1.735,3.736V56.75c0,1.568-0.579,2.828-1.735,3.773
		C100.013,59.354,101.333,57.747,101.333,55.705z M103.555,88.882c-1.482-0.571-2.223-1.668-2.223-3.287v-18.12
		c0-2.043-1.319-3.649-3.957-4.819c1.156,0.946,1.735,2.19,1.735,3.735v18.532C99.11,87.214,100.591,88.533,103.555,88.882z"/>
	<path fill="#0089EF" d="M143.559,89.893h-10.787l-9.757-26.005v24.621h2.764v1.384H111.36v-1.384h2.765V37.696h-2.765v-1.382
		h14.419v1.382h-2.764v23.202l12.196-23.202h-2.765v-1.382h8.294v1.382h-2.765l-9.541,18.157l12.305,32.655h2.818v1.384H143.559z
		 M118.57,88.509V37.696h-2.222v50.813H118.57z M136.675,88.509l-10.679-28.545l-1.355,2.541l9.812,26.004H136.675z"/>
	<path fill="#0089EF" d="M156.298,37.696l-6.559,14.684h-4.066l1.735-16.066h8.89V37.696z M151.636,37.696h-2.223l-2.005,13.488
		h0.921L151.636,37.696z"/>
	<path fill="#0089EF" d="M187.142,82.456c0,2.167-1.22,4.011-3.659,5.53c-2.439,1.519-5.466,2.277-9.08,2.277
		c-3.65,0-6.694-0.76-9.134-2.277c-2.439-1.521-3.659-3.363-3.659-5.53v-8.63h8.89v11.992c0,2.043,1.301,3.063,3.903,3.063
		c2.566,0,3.849-1.021,3.849-3.063v-9.303c0-2.541-0.886-4.771-2.656-6.688l-11.112-11.919c-1.916-2.066-2.873-4.358-2.873-6.874
		v-7.286c0-2.167,1.22-4.01,3.659-5.529c2.439-1.519,5.483-2.279,9.134-2.279c3.613,0,6.641,0.76,9.08,2.279
		c2.439,1.521,3.659,3.363,3.659,5.529v8.632h-8.89V40.386c0-2.042-1.283-3.063-3.849-3.063c-2.602,0-3.903,1.021-3.903,3.063v8.967
		c0,2.516,0.885,4.732,2.656,6.65l11.112,11.919c1.915,2.068,2.873,4.371,2.873,6.912V82.456z M182.697,83.689v-8.033
		c0-2.565-0.922-4.832-2.765-6.801L168.82,56.975c-1.843-1.967-2.765-4.233-2.765-6.8v-7.884c0-1.469,0.488-2.69,1.463-3.661
		c-2.458,1.146-3.686,2.678-3.686,4.596v7.323c0,2.565,0.922,4.846,2.765,6.837l11.112,11.845c1.843,1.968,2.765,4.234,2.765,6.8
		v8.743c0,1.545-0.579,2.789-1.734,3.735C181.377,87.338,182.697,85.732,182.697,83.689z M167.519,87.612
		c-0.976-0.972-1.463-2.205-1.463-3.699v-8.706h-2.223v7.809C163.833,84.91,165.061,86.441,167.519,87.612z M182.697,51.034v-8.519
		c0-2.042-1.32-3.649-3.957-4.82c1.156,0.947,1.734,2.205,1.734,3.774v9.564L182.697,51.034L182.697,51.034z"/>
	<path fill="#0089EF" d="M237.229,82.082c0,2.143-1.301,3.979-3.902,5.512c-2.602,1.531-5.746,2.299-9.432,2.299h-15.504v-1.384
		h2.766V37.696h-2.766v-1.382h15.504c3.686,0,6.83,0.766,9.432,2.297c2.604,1.533,3.902,3.37,3.902,5.512V82.082z M215.6,88.509
		V37.696h-2.223v50.813H215.6z M228.339,85.445V40.759c0-0.846-0.435-1.569-1.302-2.167c-0.867-0.597-1.916-0.896-3.145-0.896
		h-3.849v50.813h3.849c1.229,0,2.276-0.299,3.145-0.896C227.904,87.016,228.339,86.293,228.339,85.445z M232.783,83.314V42.927
		c0-2.068-1.319-3.674-3.957-4.82c1.156,0.922,1.734,2.167,1.734,3.736v42.556c0,1.547-0.578,2.791-1.734,3.736
		C231.464,86.964,232.783,85.357,232.783,83.314z"/>
	<path fill="#0089EF" d="M270.023,89.893H242.27v-1.384h2.766V37.696h-2.766v-1.382h27.754V52.38h-8.891V37.696h-7.209v23.202
		h10.516v1.383h-10.516V88.51h7.209V73.826h8.891V89.893L270.023,89.893z M249.479,88.509V37.696h-2.223v50.813H249.479z
		 M265.578,51.034V37.696h-2.223v13.338H265.578z M265.578,88.509V75.207h-2.223v13.302H265.578z"/>
	<path fill="#0089EF" d="M301.192,82.456c0,2.167-1.221,4.011-3.659,5.53c-2.439,1.519-5.467,2.277-9.079,2.277
		c-3.65,0-6.694-0.76-9.134-2.277c-2.439-1.521-3.659-3.363-3.659-5.53v-8.63h8.89v11.992c0,2.043,1.301,3.063,3.903,3.063
		c2.565,0,3.849-1.021,3.849-3.063v-9.303c0-2.541-0.886-4.771-2.656-6.688l-11.111-11.919c-1.916-2.066-2.873-4.358-2.873-6.874
		v-7.286c0-2.167,1.22-4.01,3.659-5.529c2.438-1.519,5.483-2.279,9.134-2.279c3.613,0,6.641,0.76,9.079,2.279
		c2.438,1.521,3.659,3.363,3.659,5.529v8.632h-8.891V40.386c0-2.042-1.283-3.063-3.849-3.063c-2.603,0-3.903,1.021-3.903,3.063
		v8.967c0,2.516,0.885,4.732,2.656,6.65l11.112,11.919c1.915,2.068,2.873,4.371,2.873,6.912V82.456z M296.747,83.689v-8.033
		c0-2.565-0.921-4.832-2.765-6.801L282.87,56.975c-1.843-1.967-2.765-4.233-2.765-6.8v-7.884c0-1.469,0.487-2.69,1.463-3.661
		c-2.457,1.146-3.686,2.678-3.686,4.596v7.323c0,2.565,0.921,4.846,2.766,6.837L291.76,69.23c1.844,1.968,2.766,4.234,2.766,6.8
		v8.743c0,1.545-0.579,2.789-1.735,3.735C295.428,87.338,296.747,85.732,296.747,83.689z M281.568,87.612
		c-0.976-0.972-1.463-2.205-1.463-3.699v-8.706h-2.223v7.809C277.884,84.91,279.111,86.441,281.568,87.612z M296.747,51.034v-8.519
		c0-2.042-1.319-3.649-3.957-4.82c1.156,0.947,1.735,2.205,1.735,3.774v9.564L296.747,51.034L296.747,51.034z"/>
	<path fill="#0089EF" d="M320.436,89.893h-14.419v-1.384h2.766V37.696h-2.766v-1.382h14.419v1.382h-2.765v50.813h2.765V89.893z
		 M313.226,88.509V37.696h-2.223v50.813H313.226z"/>
	<path fill="#0089EF" d="M352.31,82.456c0,2.144-1.301,3.979-3.902,5.511c-2.603,1.532-5.746,2.299-9.433,2.299
		c-3.649,0-6.785-0.767-9.404-2.299c-2.62-1.531-3.931-3.367-3.931-5.511V43.748c0-2.141,1.311-3.979,3.931-5.511
		c2.619-1.532,5.755-2.297,9.404-2.297c3.687,0,6.83,0.766,9.433,2.297c2.603,1.532,3.902,3.37,3.902,5.511v8.632h-8.891V40.386
		c0-0.847-0.434-1.569-1.301-2.167c-0.867-0.598-1.916-0.896-3.145-0.896s-2.275,0.298-3.145,0.896
		c-0.867,0.598-1.301,1.32-1.301,2.167v45.433c0,0.849,0.434,1.569,1.301,2.169c0.868,0.598,1.915,0.896,3.145,0.896
		c1.229,0,2.276-0.298,3.145-0.896c0.867-0.6,1.301-1.32,1.301-2.169V62.28h-4.444v-1.384h13.335V82.456z M331.548,87.612
		c-0.976-0.972-1.463-2.205-1.463-3.699V42.291c0-1.469,0.487-2.69,1.463-3.661c-2.458,1.146-3.686,2.678-3.686,4.596v39.79
		C327.862,84.91,329.09,86.441,331.548,87.612z M347.864,51.034v-8.519c0-2.042-1.337-3.649-4.011-4.82
		c1.191,0.947,1.787,2.205,1.787,3.774v9.564L347.864,51.034L347.864,51.034z M347.864,83.689V62.28h-2.224v22.491
		c0,1.545-0.596,2.791-1.787,3.736C346.527,87.338,347.864,85.732,347.864,83.689z"/>
	<path fill="#0089EF" d="M386.134,37.696h-2.765v52.196h-7.103l-13.441-41.698v40.314h2.764v1.384h-8.293v-1.384h2.765V37.696
		h-2.765v-1.382h11.221l12.089,37.213V37.696h-2.766v-1.382h8.294V37.696z M381.038,88.509l-16.316-50.813h-2.438l16.315,50.813
		H381.038z"/>
</g>
</svg>
