<?xml version="1.0" encoding="utf-8"?>
<!-- Generator: Adobe Illustrator 16.0.0, SVG Export Plug-In . SVG Version: 6.00 Build 0)  -->
<!DOCTYPE svg PUBLIC "-//W3C//DTD SVG 1.1//EN" "http://www.w3.org/Graphics/SVG/1.1/DTD/svg11.dtd">
<svg version="1.1" id="Layer_1" xmlns="http://www.w3.org/2000/svg" xmlns:xlink="http://www.w3.org/1999/xlink" x="0px" y="0px"
	 width="50px" height="50px" viewBox="0 0 50 50" enable-background="new 0 0 50 50" xml:space="preserve">
<g>
	<path d="M8.459,43.5c-0.256,0-0.512-0.098-0.707-0.293c-0.391-0.391-0.391-1.023,0-1.414L40.834,8.71
		c0.391-0.391,1.023-0.391,1.414,0s0.391,1.023,0,1.414L9.166,43.207C8.971,43.402,8.715,43.5,8.459,43.5z"/>
</g>
<g>
	<path d="M41.541,43.5c-0.256,0-0.512-0.098-0.707-0.293L7.752,10.124c-0.391-0.391-0.391-1.023,0-1.414s1.023-0.391,1.414,0
		l33.082,33.083c0.391,0.391,0.391,1.023,0,1.414C42.053,43.402,41.797,43.5,41.541,43.5z"/>
</g>
</svg>
