<?xml version="1.0" encoding="utf-8"?>
<!-- Generator: Adobe Illustrator 16.0.0, SVG Export Plug-In . SVG Version: 6.00 Build 0)  -->
<!DOCTYPE svg PUBLIC "-//W3C//DTD SVG 1.1//EN" "http://www.w3.org/Graphics/SVG/1.1/DTD/svg11.dtd">
<svg version="1.1" id="Layer_1" xmlns="http://www.w3.org/2000/svg" xmlns:xlink="http://www.w3.org/1999/xlink" x="0px" y="0px"
	 width="50px" height="50px" viewBox="0 0 50 50" enable-background="new 0 0 50 50" xml:space="preserve">
<g>
	<path d="M42.418,11H7.583c-0.552,0-1-0.448-1-1s0.448-1,1-1h34.834c0.553,0,1,0.448,1,1S42.971,11,42.418,11z"/>
</g>
<g>
	<path d="M42.418,26.334H7.583c-0.552,0-1-0.448-1-1s0.448-1,1-1h34.834c0.553,0,1,0.448,1,1S42.971,26.334,42.418,26.334z"/>
</g>
<g>
	<path d="M42.418,41.668H7.583c-0.552,0-1-0.447-1-1s0.448-1,1-1h34.834c0.553,0,1,0.447,1,1S42.971,41.668,42.418,41.668z"/>
</g>
</svg>
