<?xml version="1.0" encoding="utf-8"?>
<!-- Generator: Adobe Illustrator 16.0.0, SVG Export Plug-In . SVG Version: 6.00 Build 0)  -->
<!DOCTYPE svg PUBLIC "-//W3C//DTD SVG 1.1//EN" "http://www.w3.org/Graphics/SVG/1.1/DTD/svg11.dtd">
<svg version="1.1" id="Layer_1" xmlns="http://www.w3.org/2000/svg" xmlns:xlink="http://www.w3.org/1999/xlink" x="0px" y="0px"
	 width="30px" height="30px" viewBox="0 0 30 30" enable-background="new 0 0 30 30" xml:space="preserve">
<g>
	<g>
		<path d="M10.933,4.837l5.301,5.301l-6.63,6.629l-5.301-5.3l1.335-1.334c0.547,0.547,1.264,0.82,1.98,0.82s1.433-0.273,1.98-0.82
			c1.094-1.094,1.094-2.867,0-3.961h0L10.933,4.837 M10.933,3.423L10.226,4.13L8.892,5.465L8.185,6.172l0.707,0.707
			c0.702,0.702,0.702,1.845,0,2.547C8.552,9.766,8.1,9.954,7.619,9.954S6.686,9.766,6.345,9.426L5.638,8.72L4.931,9.426L3.596,10.76
			l-0.708,0.708l0.708,0.707l5.301,5.3l0.707,0.707l0.707-0.707l6.63-6.629l0.707-0.707l-0.707-0.707L11.64,4.13L10.933,3.423
			L10.933,3.423z"/>
	</g>
</g>
<g>
	<g>
		<path d="M19.18,27.645l-8.707-8.705l0.707-0.707l8,7.998l0.771-0.771c-1.045-1.39-0.936-3.38,0.328-4.646
			c1.264-1.265,3.256-1.374,4.646-0.329l0.771-0.771l-7.998-7.999l0.707-0.707l8.705,8.706l-2.16,2.161l-0.354-0.354
			c-0.996-0.995-2.615-0.993-3.611,0c-0.994,0.996-0.994,2.615,0,3.609l0.354,0.354L19.18,27.645z"/>
	</g>
</g>
<g>
	<g>
		<rect x="11.317" y="17.801" transform="matrix(0.7071 0.7071 -0.7071 0.7071 16.4018 -2.996)" width="1" height="1"/>
	</g>
	<g>
		<path d="M13.29,17.536l-0.707-0.707l1.53-1.53l0.707,0.707L13.29,17.536z M15.584,15.241l-0.707-0.707l1.529-1.53l0.707,0.707
			L15.584,15.241z"/>
	</g>
	<g>
		<rect x="17.379" y="11.739" transform="matrix(0.7071 0.7071 -0.7071 0.7071 13.8907 -9.0576)" width="1" height="1"/>
	</g>
</g>
</svg>
