<?xml version="1.0" encoding="utf-8"?>
<!-- Generator: Adobe Illustrator 16.0.0, SVG Export Plug-In . SVG Version: 6.00 Build 0)  -->
<!DOCTYPE svg PUBLIC "-//W3C//DTD SVG 1.1//EN" "http://www.w3.org/Graphics/SVG/1.1/DTD/svg11.dtd">
<svg version="1.1" id="Layer_1" xmlns="http://www.w3.org/2000/svg" xmlns:xlink="http://www.w3.org/1999/xlink" x="0px" y="0px"
	 width="30px" height="30px" viewBox="0 0 30 30" enable-background="new 0 0 30 30" xml:space="preserve">
<g>
	<path d="M15,28.813C7.384,28.813,1.188,22.616,1.188,15S7.384,1.188,15,1.188S28.813,7.384,28.813,15S22.616,28.813,15,28.813z
		 M15,2.188C7.935,2.188,2.188,7.935,2.188,15c0,7.064,5.748,12.813,12.813,12.813c7.064,0,12.813-5.748,12.813-12.813
		C27.813,7.935,22.064,2.188,15,2.188z"/>
</g>
<g>
	<path d="M11.724,23.295h-1V7.983h6.18c2.812,0,5.1,2.288,5.1,5.101c0,2.812-2.288,5.1-5.1,5.1H13.49v-1h3.414
		c2.261,0,4.1-1.839,4.1-4.1c0-2.261-1.839-4.101-4.1-4.101h-5.18V23.295z"/>
</g>
</svg>
