<?xml version="1.0" encoding="utf-8"?>
<!-- Generator: Adobe Illustrator 16.0.0, SVG Export Plug-In . SVG Version: 6.00 Build 0)  -->
<!DOCTYPE svg PUBLIC "-//W3C//DTD SVG 1.1//EN" "http://www.w3.org/Graphics/SVG/1.1/DTD/svg11.dtd">
<svg version="1.1" id="Layer_1" xmlns="http://www.w3.org/2000/svg" xmlns:xlink="http://www.w3.org/1999/xlink" x="0px" y="0px"
	 width="30px" height="30px" viewBox="0 0 30 30" enable-background="new 0 0 30 30" xml:space="preserve">
<g>
	<path d="M19.319,27.938h-8.639c-1.722,0-3.124-1.402-3.124-3.125V5.187c0-1.723,1.401-3.124,3.124-3.124h8.639
		c1.722,0,3.123,1.401,3.123,3.124v19.626C22.442,26.535,21.041,27.938,19.319,27.938z M10.681,3.063
		c-1.171,0-2.124,0.953-2.124,2.124v19.626c0,1.172,0.953,2.125,2.124,2.125h8.639c1.171,0,2.123-0.953,2.123-2.125V5.187
		c0-1.171-0.952-2.124-2.123-2.124H10.681z"/>
</g>
<g>
	<path d="M21.063,23.188H8.875V5.75h12.188V23.188z M9.875,22.188h10.188V6.75H9.875V22.188z"/>
</g>
<g>
	<circle cx="14.844" cy="25.188" r="1.125"/>
</g>
</svg>
