<?xml version="1.0" encoding="utf-8"?>
<!-- Generator: Adobe Illustrator 16.0.0, SVG Export Plug-In . SVG Version: 6.00 Build 0)  -->
<!DOCTYPE svg PUBLIC "-//W3C//DTD SVG 1.1//EN" "http://www.w3.org/Graphics/SVG/1.1/DTD/svg11.dtd">
<svg version="1.1" id="Layer_1" xmlns="http://www.w3.org/2000/svg" xmlns:xlink="http://www.w3.org/1999/xlink" x="0px" y="0px"
	 width="50px" height="50px" viewBox="0 0 50 50" enable-background="new 0 0 50 50" xml:space="preserve">
<g>
	<path d="M35.843,27.97H25.498c-6.001,0-10.883-4.883-10.883-10.884c0-6.001,4.882-10.883,10.883-10.883s10.884,4.882,10.884,10.883
		c0,1.938-0.516,3.84-1.491,5.5c-0.279,0.477-0.12,1.089,0.355,1.369c0.477,0.279,1.089,0.12,1.369-0.355
		c1.155-1.967,1.767-4.22,1.767-6.514c0-7.104-5.779-12.883-12.884-12.883c-7.104,0-12.883,5.779-12.883,12.883
		c0,7.104,5.779,12.884,12.883,12.884h10.345c3.796,0,6.884,3.088,6.884,6.884v6.551c0,0.553,0.447,1,1,1s1-0.447,1-1v-6.551
		C44.727,31.955,40.741,27.97,35.843,27.97z"/>
	<path d="M38.75,42.404H8.269v-5.551c0-3.796,3.088-6.884,6.884-6.884c0.552,0,1-0.447,1-1s-0.448-1-1-1
		c-4.899,0-8.884,3.985-8.884,8.884v6.551c0,0.553,0.448,1,1,1H38.75c0.553,0,1-0.447,1-1S39.303,42.404,38.75,42.404z"/>
</g>
</svg>
