<?xml version="1.0" encoding="utf-8"?>
<!-- Generator: Adobe Illustrator 16.0.0, SVG Export Plug-In . SVG Version: 6.00 Build 0)  -->
<!DOCTYPE svg PUBLIC "-//W3C//DTD SVG 1.1//EN" "http://www.w3.org/Graphics/SVG/1.1/DTD/svg11.dtd">
<svg version="1.1" id="Layer_1" xmlns="http://www.w3.org/2000/svg" xmlns:xlink="http://www.w3.org/1999/xlink" x="0px" y="0px"
	 width="50px" height="50px" viewBox="0 0 50 50" enable-background="new 0 0 50 50" xml:space="preserve">
<path d="M47.084,19.453c0-0.55-0.443-0.993-0.993-0.997c-0.003,0-0.005,0-0.007,0c-0.547,0-0.993,0.443-1,0.99
	c-0.007,0.49-0.188,2.933-3.156,2.933c-0.973,0-1.71-0.255-2.192-0.76c-0.779-0.815-0.738-2.082-0.736-2.115
	c0.028-0.549-0.392-1.019-0.941-1.051c-0.111-0.006-0.217,0.018-0.319,0.046c-0.071-0.017-0.139-0.044-0.215-0.044
	c-0.003,0-0.005,0-0.007,0c-0.547,0-0.993,0.443-1,0.99c-0.007,0.49-0.188,2.933-3.156,2.933c-0.973,0-1.71-0.255-2.192-0.76
	c-0.779-0.815-0.738-2.082-0.736-2.115c0.028-0.549-0.392-1.019-0.941-1.051c-0.041-0.002-0.077,0.014-0.117,0.017
	c-0.025-0.002-0.047-0.015-0.072-0.015c-0.003,0-0.005,0-0.007,0c-0.547,0-0.993,0.443-1,0.99c-0.007,0.49-0.188,2.933-3.156,2.933
	c-0.973,0-1.71-0.255-2.192-0.759c-0.779-0.815-0.738-2.082-0.737-2.115c0.029-0.549-0.391-1.019-0.94-1.051
	c-0.138-0.008-0.271,0.015-0.395,0.06c-0.091-0.027-0.181-0.057-0.281-0.058c-0.526-0.035-1,0.441-1.006,0.99
	c-0.006,0.49-0.189,2.933-3.156,2.933c-0.973,0-1.71-0.255-2.192-0.759c-0.786-0.822-0.737-2.103-0.737-2.109
	c0-0.006-0.003-0.012-0.002-0.018c0-0.013,0.001-0.027,0.001-0.04c0-0.044-0.02-0.082-0.025-0.125
	c-0.011-0.083-0.019-0.166-0.049-0.242c-0.018-0.044-0.048-0.08-0.072-0.121c-0.041-0.071-0.078-0.141-0.134-0.2
	c-0.03-0.031-0.068-0.05-0.101-0.077c-0.067-0.054-0.132-0.107-0.211-0.143c-0.037-0.017-0.08-0.02-0.119-0.031
	c-0.076-0.023-0.147-0.056-0.229-0.061c-0.013-0.001-0.024,0.006-0.037,0.005c-0.006,0-0.011-0.003-0.017-0.003
	c-0.115-0.007-0.223,0.019-0.327,0.054c-0.002,0.001-0.005,0-0.007,0.001c-0.116,0.04-0.22,0.104-0.313,0.185
	c-0.006,0.005-0.014,0.008-0.02,0.013c-0.065,0.06-0.112,0.133-0.161,0.208c-0.025,0.039-0.058,0.072-0.078,0.114
	c-0.032,0.068-0.042,0.144-0.059,0.219c-0.011,0.049-0.036,0.093-0.039,0.145c0,0.003,0,0.029-0.001,0.039
	c0,0.005-0.003,0.009-0.003,0.013c-0.006,0.49-0.189,2.933-3.156,2.933c-0.973,0-1.71-0.255-2.192-0.759
	c-0.618-0.646-0.718-1.567-0.734-1.941l5.791-11.894h27.944l4.092,7.599c0.262,0.486,0.869,0.667,1.354,0.406
	c0.486-0.262,0.669-0.868,0.407-1.354l-4.375-8.125c-0.175-0.324-0.513-0.526-0.881-0.526H10.584c-0.383,0-0.731,0.218-0.899,0.563
	L3.519,19.015c-0.028,0.058-0.03,0.119-0.046,0.179c-0.019,0.066-0.049,0.128-0.053,0.2c-0.005,0.086-0.107,2.128,1.27,3.588
	c0.875,0.927,2.105,1.397,3.656,1.397c2.033,0,3.319-0.801,4.1-1.815c0.103,0.142,0.204,0.284,0.33,0.418
	c0.875,0.927,2.105,1.397,3.656,1.397c2.344,0,3.693-1.065,4.42-2.293c0.167,0.308,0.364,0.614,0.631,0.896
	c0.875,0.927,2.105,1.397,3.656,1.397c2.093,0,3.392-0.85,4.164-1.906c0.119,0.174,0.248,0.346,0.402,0.509
	c0.875,0.927,2.104,1.397,3.656,1.397c2.267,0,3.604-0.996,4.347-2.172c0.155,0.267,0.333,0.53,0.564,0.775
	c0.556,0.589,1.271,0.972,2.104,1.188V41.41h-9.945v-6.299c0-2.856-2.323-5.18-5.18-5.18c-2.856,0-5.179,2.323-5.179,5.18v6.299
	h-9.821v-12.5c0-0.553-0.448-1-1-1s-1,0.447-1,1v13.5c0,0.553,0.448,1,1,1h32.125c0.553,0,1-0.447,1-1V24.357
	C46.079,24.126,47.084,21.091,47.084,19.453z M22.072,35.111c0-1.753,1.426-3.18,3.179-3.18s3.18,1.427,3.18,3.18v6.299h-6.359
	V35.111z"/>
</svg>
