<?xml version="1.0" encoding="utf-8"?>
<!-- Generator: Adobe Illustrator 16.0.0, SVG Export Plug-In . SVG Version: 6.00 Build 0)  -->
<!DOCTYPE svg PUBLIC "-//W3C//DTD SVG 1.1 Basic//EN" "http://www.w3.org/Graphics/SVG/1.1/DTD/svg11-basic.dtd">
<svg version="1.1" baseProfile="basic" id="Layer_1"
	 xmlns="http://www.w3.org/2000/svg" xmlns:xlink="http://www.w3.org/1999/xlink" x="0px" y="0px" width="100px" height="100px"
	 viewBox="0 0 100 100" xml:space="preserve">
<g>
	<path fill="#FFFFFF" d="M78.333,64.469c0,1.332-1.08,2.41-2.411,2.41H24.078c-1.332,0-2.411-1.078-2.411-2.41V35.532
		c0-1.332,1.08-2.412,2.411-2.412h51.844c1.331,0,2.411,1.08,2.411,2.412V64.469z"/>
	<path d="M75.922,68.379H24.078c-2.157,0-3.911-1.754-3.911-3.91V35.532c0-2.157,1.754-3.912,3.911-3.912h51.844
		c2.156,0,3.911,1.755,3.911,3.912v28.937C79.833,66.625,78.078,68.379,75.922,68.379z M24.078,34.621
		c-0.502,0-0.911,0.409-0.911,0.912v28.937c0,0.502,0.409,0.91,0.911,0.91h51.844c0.502,0,0.911-0.408,0.911-0.91V35.532
		c0-0.502-0.409-0.912-0.911-0.912H24.078z"/>
</g>
<g>
	<rect x="21.667" y="41.75" width="56.667" height="6.25"/>
</g>
<g>
	<rect x="27.667" y="52.667" width="15.667" height="3"/>
</g>
</svg>
