<?xml version="1.0" encoding="utf-8"?>
<!-- Generator: Adobe Illustrator 16.0.0, SVG Export Plug-In . SVG Version: 6.00 Build 0)  -->
<!DOCTYPE svg PUBLIC "-//W3C//DTD SVG 1.1 Basic//EN" "http://www.w3.org/Graphics/SVG/1.1/DTD/svg11-basic.dtd">
<svg version="1.1" baseProfile="basic" id="Layer_1"
	 xmlns="http://www.w3.org/2000/svg" xmlns:xlink="http://www.w3.org/1999/xlink" x="0px" y="0px" width="100px" height="100px"
	 viewBox="0 0 100 100" xml:space="preserve">
<path fill-rule="evenodd" clip-rule="evenodd" fill="#D83926" d="M55.409,46.453c-1.007,0.041-2.014,0.075-3.021,0.126
	c-0.97,0.049-1.101-0.466-0.974-1.286c0.645-4.139,4.643-7.3,9.044-7.12c4.008,0.165,7.799,3.729,8.014,7.757
	c0.155,2.927,0.133,5.872,0.016,8.802c-0.154,3.858-3.055,7.039-6.921,7.819c-3.825,0.771-7.654-1.118-9.38-4.629
	c-1.711-3.483-0.885-7.809,1.958-10.31c0.428-0.376,0.816-0.797,1.225-1.197c0.32-0.078,0.657-0.118,0.957-0.244
	c2.436-1.021,4.855-1.032,7.274,0.054c0.188,0.085,0.414,0.088,0.622,0.129c0.114-0.122,0.229-0.244,0.346-0.366
	c-0.702-0.902-1.273-1.961-2.133-2.672C60.451,41.673,56.254,42.296,55.409,46.453z M55.448,53.992
	c-0.025,2.441,2.021,4.51,4.473,4.52c2.377,0.01,4.43-1.986,4.491-4.364c0.063-2.443-1.933-4.518-4.406-4.579
	C57.57,49.509,55.474,51.544,55.448,53.992z"/>
<path fill-rule="evenodd" clip-rule="evenodd" fill="#D83926" d="M73.432,61.233c-1.693-1.455-3.142-3.127-3.32-5.392
	c-0.217-2.729-0.188-5.478-0.195-8.218c-0.001-0.269,0.485-0.555,0.776-0.795c0.089-0.074,0.28-0.027,0.425-0.028
	c3.497-0.009,2.845-0.29,2.895,2.757c0.023,1.445-0.036,2.892,0.001,4.336c0.069,2.684,1.82,4.597,4.188,4.634
	c2.352,0.035,4.132-1.879,4.185-4.582c0.039-1.976,0.014-3.952-0.033-5.927c-0.021-0.935,0.35-1.281,1.28-1.263
	c3.732,0.072,3.159-0.458,3.169,3.083c0.011,3.662,0.007,7.323-0.025,10.985c-0.038,4.168-2.394,7.397-6.32,8.735
	c-4.504,1.534-10.267-2.302-10.454-7.011c-0.014-0.319,0.498-0.885,0.835-0.945c0.788-0.141,1.62-0.045,2.433-0.045
	C73.324,61.449,73.377,61.342,73.432,61.233z M82.183,61.784c-2.669,1.196-5.316,1.202-7.968-0.071
	c0.291,2.51,1.951,3.954,4.263,3.845C80.521,65.463,82.073,63.952,82.183,61.784z"/>
<path fill-rule="evenodd" clip-rule="evenodd" fill="#D83926" d="M18.92,50.282c4.219,4.036,8.301,7.941,12.44,11.9
	c-2.271,1.018-5.353,0.477-6.881-1.03c-2.222-2.19-4.466-4.358-6.911-6.739c0,2.045,0.037,3.933-0.018,5.816
	c-0.023,0.773-0.102,2.132-0.403,2.205c-1.132,0.273-2.367,0.165-3.558,0.097c-0.154-0.009-0.391-0.612-0.392-0.94
	c-0.022-7.317-0.011-14.632-0.025-21.948c-0.001-0.74,0.278-1.033,1.021-1.022c4.12,0.059,3.295-0.46,3.365,3.175
	c0.021,1.133,0.003,2.266,0.003,3.813c1.761-1.856,3.349-3.321,4.678-4.992c1.266-1.59,2.72-2.279,4.719-2.012
	c0.839,0.112,1.704,0.019,2.557,0.019c0.084,0.134,0.167,0.269,0.252,0.403C26.306,42.618,22.844,46.209,18.92,50.282z"/>
<path fill-rule="evenodd" clip-rule="evenodd" fill="#D83926" d="M37.039,61.817c0,2.055-0.068,4.155,0.025,6.247
	c0.057,1.28-0.271,1.81-1.66,1.761c-3.04-0.108-2.557,0.15-2.567-2.542c-0.018-4.476-0.037-8.952,0.019-13.428
	c0.056-4.409,3.36-7.965,7.755-8.465c4.128-0.469,8.12,2.222,9.185,6.306c0.886,3.397,0.095,6.405-2.533,8.797
	c-2.552,2.323-5.528,2.72-8.752,1.683c-0.41-0.133-0.81-0.298-1.217-0.44C37.259,61.723,37.205,61.763,37.039,61.817z
	 M45.958,54.003c-0.012-2.396-2.021-4.385-4.43-4.388c-2.425-0.003-4.541,2.095-4.528,4.486c0.014,2.307,2.129,4.388,4.477,4.401
	C43.931,58.517,45.971,56.469,45.958,54.003z"/>
<path fill-rule="evenodd" clip-rule="evenodd" fill="#D83926" d="M59.864,51.842c2.213,0.002,2.213,0.002,2.214,2.461
	c0,1.874,0,1.874-2.361,1.868c-1.99-0.004-1.99-0.004-1.987-2.229C57.732,51.84,57.732,51.84,59.864,51.842z"/>
</svg>
