<?xml version="1.0" encoding="utf-8"?>
<!-- Generator: Adobe Illustrator 16.0.0, SVG Export Plug-In . SVG Version: 6.00 Build 0)  -->
<!DOCTYPE svg PUBLIC "-//W3C//DTD SVG 1.1 Basic//EN" "http://www.w3.org/Graphics/SVG/1.1/DTD/svg11-basic.dtd">
<svg version="1.1" baseProfile="basic" id="Layer_1"
	 xmlns="http://www.w3.org/2000/svg" xmlns:xlink="http://www.w3.org/1999/xlink" x="0px" y="0px" width="100px" height="100px"
	 viewBox="0 0 100 100" xml:space="preserve">
<g>
	<path fill="#FFFFFF" d="M40.708,61c0,3.682,8.693,6.667,19.417,6.667c10.725,0,19.418-2.985,19.418-6.667
		S70.85,48.644,60.125,48.644C49.402,48.644,40.708,57.318,40.708,61z"/>
	<path d="M60.125,69.167c-10.394,0-20.917-2.806-20.917-8.167c0-4.683,9.47-13.856,20.917-13.856
		c11.447,0,20.918,9.174,20.918,13.856C81.043,66.361,70.52,69.167,60.125,69.167z M60.125,50.144
		c-10.281,0-17.917,8.313-17.917,10.856c0,2.106,6.979,5.167,17.917,5.167c10.938,0,17.918-3.061,17.918-5.167
		C78.043,58.456,70.406,50.144,60.125,50.144z"/>
</g>
<g>
	<path fill="#FFFFFF" d="M40.708,52.667c0,3.682,8.693,6.667,19.417,6.667c10.725,0,19.418-2.985,19.418-6.667
		c0-3.682-7.277-10.667-18-10.667C50.819,42,40.708,48.985,40.708,52.667z"/>
	<path d="M60.125,60.834c-10.394,0-20.917-2.806-20.917-8.167c0-5.026,11.551-12.167,22.334-12.167c11.125,0,19.5,7.381,19.5,12.167
		C81.043,58.028,70.52,60.834,60.125,60.834z M61.543,43.5c-10.635,0-19.334,6.921-19.334,9.167c0,2.106,6.979,5.167,17.917,5.167
		c10.938,0,17.918-3.061,17.918-5.167C78.043,49.946,71.639,43.5,61.543,43.5z"/>
</g>
<g>
	<path fill="#FFFFFF" d="M40.708,44c0,3.681,8.693,6.667,19.417,6.667c10.725,0,19.418-2.985,19.418-6.667
		c0-3.682-6.609-9.5-17.334-9.5C51.486,34.5,40.708,40.318,40.708,44z"/>
	<path d="M60.125,52.167c-10.394,0-20.917-2.805-20.917-8.167c0-5.141,12.252-11,23-11c11.668,0,18.834,6.407,18.834,11
		C81.043,49.362,70.52,52.167,60.125,52.167z M62.209,36c-10.49,0-20,5.76-20,8c0,2.106,6.979,5.167,17.917,5.167
		c10.938,0,17.918-3.06,17.918-5.167C78.043,41.608,72.656,36,62.209,36z"/>
</g>
<g>
	<ellipse fill="#FFFFFF" cx="60.126" cy="35.667" rx="19.417" ry="6.667"/>
	<path d="M60.125,43.833c-10.394,0-20.917-2.805-20.917-8.167c0-5.362,10.522-8.167,20.917-8.167
		c10.395,0,20.918,2.805,20.918,8.167C81.043,41.028,70.52,43.833,60.125,43.833z M60.125,30.5c-10.937,0-17.917,3.06-17.917,5.167
		c0,2.106,6.979,5.167,17.917,5.167c10.938,0,17.918-3.06,17.918-5.167C78.043,33.56,71.063,30.5,60.125,30.5z"/>
</g>
<g>
	<circle fill="#FFFFFF" cx="43.793" cy="46.75" r="23.334"/>
	<path d="M43.792,71.584c-13.693,0-24.834-11.141-24.834-24.834s11.141-24.834,24.834-24.834c13.694,0,24.834,11.141,24.834,24.834
		S57.486,71.584,43.792,71.584z M43.792,24.916c-12.039,0-21.834,9.795-21.834,21.834s9.795,21.834,21.834,21.834
		c12.04,0,21.834-9.795,21.834-21.834S55.832,24.916,43.792,24.916z"/>
</g>
<g>
	<polyline fill="#FFFFFF" points="30.272,36.729 37.272,56.73 43.938,36.729 	"/>
	<path d="M37.272,58.23c-0.637,0-1.205-0.402-1.416-1.005l-7-20c-0.273-0.782,0.139-1.638,0.92-1.912
		c0.781-0.272,1.638,0.138,1.912,0.92l5.549,15.857l5.278-15.835c0.262-0.786,1.112-1.211,1.897-0.949
		c0.786,0.262,1.211,1.111,0.949,1.897l-6.667,20.001c-0.203,0.608-0.77,1.021-1.412,1.025C37.279,58.23,37.275,58.23,37.272,58.23z
		"/>
</g>
<g>
	<polyline fill="#FFFFFF" points="43.979,36.771 50.98,56.771 57.646,36.771 	"/>
	<path d="M50.98,58.271c-0.637,0-1.205-0.402-1.416-1.005l-7-20c-0.273-0.782,0.139-1.638,0.92-1.912s1.637,0.139,1.912,0.92
		l5.549,15.857l5.278-15.835c0.262-0.787,1.111-1.213,1.898-0.949c0.785,0.262,1.209,1.111,0.947,1.897l-6.666,20.001
		c-0.203,0.608-0.77,1.021-1.412,1.025C50.988,58.271,50.984,58.271,50.98,58.271z"/>
</g>
<g>
	<line fill="#FFFFFF" x1="29.105" y1="46.063" x2="58.48" y2="46.063"/>
	<rect x="29.105" y="44.563" width="29.375" height="3"/>
</g>
</svg>
