<?xml version="1.0" encoding="utf-8"?>
<!-- Generator: Adobe Illustrator 16.0.0, SVG Export Plug-In . SVG Version: 6.00 Build 0)  -->
<!DOCTYPE svg PUBLIC "-//W3C//DTD SVG 1.1 Basic//EN" "http://www.w3.org/Graphics/SVG/1.1/DTD/svg11-basic.dtd">
<svg version="1.1" baseProfile="basic" id="Layer_1"
	 xmlns="http://www.w3.org/2000/svg" xmlns:xlink="http://www.w3.org/1999/xlink" x="0px" y="0px" width="100px" height="100px"
	 viewBox="0 0 100 100" xml:space="preserve">
<g>
	<polygon fill="#FFFFFF" points="70.083,73.751 25.417,73.751 33.917,41.751 78.584,41.751 	"/>
	<path d="M70.083,75.251H25.417c-0.466,0-0.905-0.217-1.189-0.586c-0.284-0.369-0.38-0.849-0.261-1.299l8.5-32
		c0.175-0.657,0.77-1.115,1.45-1.115h44.667c0.466,0,0.905,0.216,1.189,0.585c0.283,0.369,0.38,0.85,0.261,1.3l-8.501,32
		C71.358,74.793,70.763,75.251,70.083,75.251z M27.367,72.251H68.93l7.704-29H35.07L27.367,72.251z"/>
</g>
<g>
	<circle fill="#FFFFFF" cx="40.77" cy="50.917" r="14.334"/>
	<path d="M40.77,66.751c-8.731,0-15.834-7.104-15.834-15.834c0-8.731,7.103-15.834,15.834-15.834s15.834,7.103,15.834,15.834
		C56.604,59.647,49.5,66.751,40.77,66.751z M40.77,38.083c-7.077,0-12.834,5.757-12.834,12.834c0,7.077,5.757,12.834,12.834,12.834
		s12.834-5.757,12.834-12.834C53.604,43.84,47.846,38.083,40.77,38.083z"/>
</g>
<g>
	<polygon fill="#FFFFFF" points="70.083,73.751 25.417,73.751 15.417,48.084 60.083,48.084 	"/>
	<path d="M70.103,75.251c-0.005,0-0.013,0-0.02,0H25.417c-0.618,0-1.173-0.379-1.397-0.955l-10-25.667
		c-0.18-0.461-0.121-0.982,0.159-1.391c0.279-0.409,0.743-0.653,1.238-0.653h44.667c0.618,0,1.173,0.379,1.397,0.956l9.917,25.453
		c0.131,0.223,0.205,0.481,0.205,0.759C71.603,74.579,70.932,75.251,70.103,75.251z M26.442,72.251h41.447l-8.831-22.667H17.611
		L26.442,72.251z"/>
</g>
<g>
	<polygon points="17.689,53.917 62.355,53.917 63.85,57.751 19.183,57.751 	"/>
</g>
<g>
	<path d="M50.254,32.5c-0.829,0-1.5-0.671-1.5-1.5V20.682c0-0.829,0.671-1.5,1.5-1.5s1.5,0.671,1.5,1.5V31
		C51.754,31.829,51.083,32.5,50.254,32.5z"/>
</g>
<g>
	<polygon points="50.254,16 44.731,21.523 55.269,21.523 	"/>
	<path d="M55.269,23.023H44.731c-0.606,0-1.154-0.365-1.386-0.926c-0.232-0.561-0.104-1.206,0.325-1.635l5.523-5.523
		c0.29-0.291,0.69-0.451,1.097-0.439c0.41,0.01,0.798,0.188,1.075,0.491l5.014,5.523c0.399,0.439,0.502,1.073,0.261,1.616
		C56.399,22.673,55.862,23.023,55.269,23.023z M48.353,20.023h3.528l-1.679-1.85L48.353,20.023z"/>
</g>
</svg>
