<?xml version="1.0" encoding="utf-8"?>
<!-- Generator: Adobe Illustrator 16.0.0, SVG Export Plug-In . SVG Version: 6.00 Build 0)  -->
<!DOCTYPE svg PUBLIC "-//W3C//DTD SVG 1.1 Basic//EN" "http://www.w3.org/Graphics/SVG/1.1/DTD/svg11-basic.dtd">
<svg version="1.1" baseProfile="basic" id="Layer_1"
	 xmlns="http://www.w3.org/2000/svg" xmlns:xlink="http://www.w3.org/1999/xlink" x="0px" y="0px" width="100px" height="100px"
	 viewBox="0 0 100 100" xml:space="preserve">
<g>
	<polygon fill="#FFFFFF" points="21.25,77.375 74.5,77.375 83.5,37.625 30.25,37.625 	"/>
	<path d="M74.5,78.875H21.25c-0.456,0-0.887-0.207-1.172-0.563s-0.392-0.823-0.291-1.268l8.999-39.75
		c0.155-0.684,0.762-1.169,1.463-1.169H83.5c0.456,0,0.888,0.208,1.172,0.564c0.285,0.356,0.392,0.822,0.291,1.267l-9,39.75
		C75.809,78.39,75.201,78.875,74.5,78.875z M23.128,75.875h50.174l8.32-36.75H31.448L23.128,75.875z"/>
</g>
<g>
	<polygon fill="#FFFFFF" points="73.668,77.375 20.417,77.375 11.75,46.875 65.002,46.875 	"/>
	<path d="M73.688,78.875c-0.004,0-0.012,0-0.02,0H20.417c-0.67,0-1.26-0.445-1.443-1.09l-8.667-30.5
		c-0.128-0.453-0.038-0.939,0.246-1.314c0.283-0.375,0.727-0.596,1.197-0.596h53.251c0.671,0,1.26,0.445,1.443,1.09l8.601,30.272
		c0.091,0.194,0.142,0.41,0.142,0.638C75.188,78.203,74.517,78.875,73.688,78.875z M21.55,75.875h50.132l-7.813-27.5H13.736
		L21.55,75.875z"/>
</g>
<g>
	<polygon points="67.745,58.25 14.882,58.25 13.715,53 66.578,53 	"/>
</g>
<g>
	<path d="M25.249,35.248c-0.811,0-1.477-0.644-1.499-1.458c-0.005-0.202-0.094-4.968,3.053-8.199
		c1.836-1.885,4.342-2.841,7.447-2.841c0.829,0,1.5,0.671,1.5,1.5s-0.671,1.5-1.5,1.5c-2.257,0-4.035,0.646-5.284,1.92
		c-2.264,2.309-2.217,6.008-2.217,6.045c0.017,0.826-0.639,1.513-1.465,1.532C25.272,35.248,25.261,35.248,25.249,35.248z"/>
</g>
<g>
	<path d="M20.25,35.249c-0.81,0-1.477-0.645-1.499-1.459c-0.008-0.299-0.139-7.374,4.513-12.149
		c2.693-2.765,6.39-4.167,10.986-4.167c0.829,0,1.5,0.671,1.5,1.5s-0.671,1.5-1.5,1.5c-3.748,0-6.716,1.092-8.823,3.246
		c-3.769,3.854-3.679,9.935-3.677,9.995c0.019,0.827-0.636,1.515-1.463,1.535C20.274,35.248,20.262,35.249,20.25,35.249z"/>
</g>
<g>
	<path d="M14.778,35.249c-0.81,0-1.477-0.645-1.499-1.459c-0.011-0.406-0.189-10.006,6.11-16.473
		c3.631-3.729,8.631-5.619,14.86-5.619c0.829,0,1.5,0.671,1.5,1.5s-0.671,1.5-1.5,1.5c-5.38,0-9.652,1.58-12.696,4.697
		c-5.417,5.544-5.277,14.231-5.275,14.319c0.02,0.827-0.635,1.515-1.462,1.536C14.804,35.249,14.791,35.249,14.778,35.249z"/>
</g>
</svg>
