<?xml version="1.0" encoding="utf-8"?>
<!-- Generator: Adobe Illustrator 16.0.0, SVG Export Plug-In . SVG Version: 6.00 Build 0)  -->
<!DOCTYPE svg PUBLIC "-//W3C//DTD SVG 1.1//EN" "http://www.w3.org/Graphics/SVG/1.1/DTD/svg11.dtd">
<svg version="1.1" id="Layer_1" xmlns="http://www.w3.org/2000/svg" xmlns:xlink="http://www.w3.org/1999/xlink" x="0px" y="0px"
	 width="50px" height="50px" viewBox="0 0 50 50" enable-background="new 0 0 50 50" xml:space="preserve">
<path fill-rule="evenodd" clip-rule="evenodd" fill="#303030" d="M37.596,13.262c-4.277-3.47-9.265-4.641-14.664-4.164
	c-4.406,0.39-8.363,1.933-11.56,5.079C8.6,16.906,7.174,20.2,7.676,24.146c0.473,3.711,2.515,6.482,5.451,8.655
	c0.789,0.585,1.646,1.076,2.512,1.636c-0.508,1.813-1.029,3.607-1.501,5.414c-0.094,0.358,0.005,0.768,0.015,1.152
	c0.379-0.078,0.823-0.057,1.128-0.252c1.834-1.18,3.671-2.36,5.434-3.642c0.833-0.605,1.631-0.774,2.644-0.702
	c5.3,0.379,10.178-0.824,14.33-4.264C44.039,26.883,43.994,18.453,37.596,13.262z M16.5,24.417c-1.151,0-2.083-0.933-2.083-2.083
	c0-1.151,0.933-2.083,2.083-2.083c1.15,0,2.083,0.933,2.083,2.083C18.583,23.484,17.65,24.417,16.5,24.417z M25.333,24.417
	c-1.151,0-2.083-0.933-2.083-2.083c0-1.151,0.933-2.083,2.083-2.083s2.083,0.933,2.083,2.083
	C27.416,23.484,26.484,24.417,25.333,24.417z M34.25,24.417c-1.15,0-2.083-0.933-2.083-2.083c0-1.151,0.933-2.083,2.083-2.083
	c1.151,0,2.083,0.933,2.083,2.083C36.333,23.484,35.401,24.417,34.25,24.417z"/>
</svg>
