<?xml version="1.0" encoding="utf-8"?>
<!-- Generator: Adobe Illustrator 16.0.0, SVG Export Plug-In . SVG Version: 6.00 Build 0)  -->
<!DOCTYPE svg PUBLIC "-//W3C//DTD SVG 1.1//EN" "http://www.w3.org/Graphics/SVG/1.1/DTD/svg11.dtd">
<svg version="1.1" id="Layer_1" xmlns="http://www.w3.org/2000/svg" xmlns:xlink="http://www.w3.org/1999/xlink" x="0px" y="0px"
	 width="30px" height="30px" viewBox="0 0 30 30" enable-background="new 0 0 30 30" xml:space="preserve">
<g>
	<path d="M20.243,18.691l0.242-0.344c1.115-1.582,1.729-3.515,1.729-5.441c0-5.208-4.236-9.444-9.443-9.444
		c-5.208,0-9.445,4.237-9.445,9.444c0,5.208,4.236,9.445,9.443,9.445c2.097,0,4.083-0.673,5.742-1.946l0.348-0.268l6.107,6.106
		c0.379,0.377,1.035,0.377,1.414,0c0.188-0.189,0.293-0.44,0.293-0.707s-0.104-0.518-0.293-0.707L20.243,18.691z M17.834,18.364
		c-1.381,1.281-3.179,1.987-5.063,1.987c-1.986,0-3.855-0.775-5.262-2.183c-1.408-1.408-2.182-3.276-2.181-5.262
		c0-4.104,3.339-7.444,7.443-7.444s7.444,3.339,7.444,7.444C20.216,14.971,19.348,16.96,17.834,18.364z"/>
</g>
</svg>
