<?xml version="1.0" encoding="utf-8"?>
<!-- Generator: Adobe Illustrator 16.0.0, SVG Export Plug-In . SVG Version: 6.00 Build 0)  -->
<!DOCTYPE svg PUBLIC "-//W3C//DTD SVG 1.1//EN" "http://www.w3.org/Graphics/SVG/1.1/DTD/svg11.dtd">
<svg version="1.1" id="Layer_1" xmlns="http://www.w3.org/2000/svg" xmlns:xlink="http://www.w3.org/1999/xlink" x="0px" y="0px"
	 width="30px" height="30px" viewBox="0 0 30 30" enable-background="new 0 0 30 30" xml:space="preserve">
<path fill-rule="evenodd" clip-rule="evenodd" fill="#E50000" d="M15.256,6.234c1.076,0,2.152-0.02,3.225,0.004
	c1.549,0.035,3.099,0.089,4.646,0.16c0.59,0.026,1.184,0.085,1.767,0.19c0.628,0.113,1.17,0.433,1.611,0.901
	c0.385,0.406,0.574,0.92,0.747,1.439c0.232,0.709,0.325,1.447,0.391,2.188c0.158,1.804,0.096,3.612,0.102,5.419
	c0.004,1.277-0.087,2.553-0.298,3.814c-0.112,0.664-0.306,1.311-0.708,1.856c-0.586,0.8-1.397,1.22-2.391,1.275
	c-1.34,0.075-2.678,0.183-4.019,0.216c-2.207,0.052-4.415,0.061-6.623,0.076c-0.807,0.005-1.614-0.015-2.421-0.041
	c-1.377-0.044-2.756-0.086-4.132-0.162c-0.558-0.029-1.121-0.101-1.664-0.23c-1.118-0.264-1.846-0.972-2.203-2.069
	c-0.21-0.646-0.346-1.306-0.379-1.977c-0.075-1.517-0.154-3.032-0.177-4.549c-0.024-1.593,0.048-3.185,0.272-4.766
	C3.087,9.386,3.206,8.8,3.472,8.255c0.469-0.962,1.257-1.534,2.29-1.695c0.868-0.135,1.753-0.169,2.633-0.21
	c1.126-0.053,2.254-0.083,3.381-0.098c1.16-0.016,2.32-0.004,3.48-0.004C15.256,6.244,15.256,6.238,15.256,6.234z M12.673,11.202
	c0,2.363,0,4.688,0,7.029c2.248-1.158,4.48-2.308,6.711-3.458c-0.002-0.018-0.003-0.035-0.004-0.052
	C17.156,13.554,14.93,12.386,12.673,11.202z"/>
</svg>
