<?xml version="1.0" encoding="utf-8"?>
<!-- Generator: Adobe Illustrator 16.0.0, SVG Export Plug-In . SVG Version: 6.00 Build 0)  -->
<!DOCTYPE svg PUBLIC "-//W3C//DTD SVG 1.1//EN" "http://www.w3.org/Graphics/SVG/1.1/DTD/svg11.dtd">
<svg version="1.1" id="Layer_1" xmlns="http://www.w3.org/2000/svg" xmlns:xlink="http://www.w3.org/1999/xlink" x="0px" y="0px"
	 width="30px" height="30px" viewBox="0 0 30 30" enable-background="new 0 0 30 30" xml:space="preserve">
<g>
	<path fill="#2149F2" d="M22.987,27.428L15,23.494l-7.986,3.934l1.272-8.813l-6.209-6.38l8.774-1.512L15,2.846l4.149,7.877
		l8.774,1.512l-6.211,6.38L22.987,27.428z M4.117,12.897l5.229,5.373l-1.072,7.421L15,22.379l6.726,3.313l-1.073-7.421l5.23-5.373
		l-7.388-1.273L15,4.991l-3.494,6.633L4.117,12.897z"/>
</g>
<polygon fill="#2149F2" points="15,4.039 18.929,11.005 26.77,12.59 21.358,18.48 22.275,26.426 15,23.099 7.726,26.426 
	8.642,18.48 3.23,12.59 11.07,11.005 "/>
</svg>
