<?xml version="1.0" encoding="utf-8"?>
<!-- Generator: Adobe Illustrator 16.0.0, SVG Export Plug-In . SVG Version: 6.00 Build 0)  -->
<!DOCTYPE svg PUBLIC "-//W3C//DTD SVG 1.1//EN" "http://www.w3.org/Graphics/SVG/1.1/DTD/svg11.dtd">
<svg version="1.1" id="Layer_1" xmlns="http://www.w3.org/2000/svg" xmlns:xlink="http://www.w3.org/1999/xlink" x="0px" y="0px"
	 width="60px" height="60px" viewBox="0 0 60 60" enable-background="new 0 0 60 60" xml:space="preserve">
<g>
	<path d="M33.25,49.832v-6.707H14.475c-3.157,0-5.725-2.568-5.725-5.725V25.1c0-3.157,2.568-5.725,5.725-5.725h29.499
		c3.156,0,5.725,2.568,5.725,5.725v12.3c0,3.156-2.568,5.725-5.725,5.725h-4.017L33.25,49.832z M14.475,20.375
		c-2.605,0-4.725,2.12-4.725,4.725v12.3c0,2.605,2.12,4.725,4.725,4.725H34.25v5.293l5.293-5.293h4.431
		c2.605,0,4.725-2.119,4.725-4.725V25.1c0-2.605-2.119-4.725-4.725-4.725H14.475z"/>
</g>
<g>
	<circle cx="19.641" cy="31.25" r="1.917"/>
</g>
<g>
	<circle cx="29.224" cy="31.25" r="1.917"/>
</g>
<g>
	<circle cx="38.807" cy="31.25" r="1.917"/>
</g>
</svg>
