<?xml version="1.0" encoding="utf-8"?>
<!-- Generator: Adobe Illustrator 16.0.0, SVG Export Plug-In . SVG Version: 6.00 Build 0)  -->
<!DOCTYPE svg PUBLIC "-//W3C//DTD SVG 1.1//EN" "http://www.w3.org/Graphics/SVG/1.1/DTD/svg11.dtd">
<svg version="1.1" id="Layer_1" xmlns="http://www.w3.org/2000/svg" xmlns:xlink="http://www.w3.org/1999/xlink" x="0px" y="0px"
	 width="164.833px" height="67.25px" viewBox="0 0 164.833 67.25" enable-background="new 0 0 164.833 67.25" xml:space="preserve">
<g>
	<path fill="none" d="M75.709,11.596v5.365h4.866c0.455,0,0.842-0.104,1.186-0.319c0.343-0.213,0.602-0.511,0.792-0.91
		c0.196-0.412,0.296-0.902,0.296-1.453c0-0.552-0.1-1.041-0.296-1.455c-0.19-0.398-0.448-0.697-0.787-0.912
		c-0.339-0.213-0.729-0.316-1.191-0.316H75.709L75.709,11.596z"/>
	<rect x="11.425" y="7.878" fill="#5C82E7" width="3.873" height="21.478"/>
	<polygon fill="#5C82E7" points="37.093,29.354 40.966,29.354 40.966,20.734 49.43,20.734 49.43,17.004 40.966,17.004 40.966,11.61 
		50.979,11.61 50.979,7.878 37.093,7.878 	"/>
	<path fill="#5C82E7" d="M64.457,21.545c0,1.355-0.337,2.407-1,3.125c-0.664,0.717-1.592,1.064-2.837,1.064
		c-1.235,0-2.156-0.349-2.815-1.063c-0.66-0.717-0.994-1.771-0.994-3.126V7.878h-3.873v13.567c0,1.677,0.302,3.138,0.896,4.343
		c0.606,1.229,1.502,2.178,2.664,2.821c1.145,0.636,2.532,0.955,4.122,0.955c1.599,0,2.993-0.319,4.143-0.955
		c1.167-0.646,2.065-1.594,2.671-2.821c0.595-1.205,0.897-2.666,0.897-4.343V7.878h-3.873L64.457,21.545L64.457,21.545z"/>
	<path fill="#5C82E7" d="M83.807,19.9c0.977-0.532,1.747-1.297,2.29-2.273c0.537-0.968,0.81-2.095,0.81-3.349
		c0-1.252-0.271-2.377-0.802-3.346c-0.536-0.977-1.305-1.743-2.284-2.275c-0.967-0.525-2.097-0.792-3.358-0.792h-8.626v21.49h3.873
		v-8.66h3.47l4.37,8.66h4.544l-4.842-9.188C83.442,20.087,83.627,19.997,83.807,19.9z M82.553,12.825
		c0.197,0.414,0.296,0.902,0.296,1.453c0,0.553-0.1,1.041-0.296,1.455c-0.19,0.398-0.449,0.696-0.792,0.909
		c-0.344,0.216-0.731,0.319-1.186,0.319h-4.866v-5.365h4.866c0.462,0,0.852,0.104,1.191,0.316
		C82.105,12.127,82.363,12.425,82.553,12.825z"/>
	<polygon fill="#5C82E7" points="102.917,21.948 94.018,7.878 90.638,7.878 90.638,29.341 94.482,29.341 94.482,15.485 
		103.356,29.341 106.763,29.341 106.763,7.878 102.917,7.878 	"/>
	<rect x="113.333" y="7.878" fill="#5C82E7" width="3.873" height="21.478"/>
	<polygon fill="#5C82E7" points="133.555,21.948 124.656,7.878 121.275,7.878 121.275,29.341 125.12,29.341 125.12,15.485 
		133.993,29.341 137.4,29.341 137.4,7.878 133.555,7.878 	"/>
	<path fill="#5C82E7" d="M148.372,17.327v3.746h4.153v0.388c0,0.915-0.158,1.709-0.472,2.359c-0.309,0.64-0.729,1.109-1.283,1.44
		c-1.122,0.671-2.85,0.653-3.985,0.015c-0.573-0.319-1.006-0.76-1.317-1.342c-0.313-0.586-0.477-1.285-0.477-2.08v-6.042
		c0-0.887,0.159-1.67,0.473-2.327c0.312-0.646,0.731-1.134,1.295-1.488c0.563-0.355,1.203-0.528,1.959-0.528
		c0.504,0,1,0.114,1.478,0.339c0.476,0.225,0.896,0.559,1.25,0.992c0.354,0.432,0.606,0.96,0.763,1.57l0.094,0.379h4.107
		l-0.113-0.594c-0.248-1.278-0.73-2.42-1.438-3.396c-0.712-0.981-1.606-1.75-2.665-2.286c-1.059-0.536-2.227-0.808-3.473-0.808
		c-1.512,0-2.862,0.343-4.021,1.019c-1.164,0.68-2.072,1.651-2.707,2.887c-0.625,1.221-0.941,2.648-0.941,4.242v6.042
		c0,1.515,0.324,2.869,0.965,4.028c0.645,1.169,1.564,2.087,2.74,2.728c1.162,0.634,2.523,0.953,4.049,0.953
		c1.512,0,2.863-0.342,4.021-1.019c1.163-0.681,2.074-1.653,2.707-2.896c0.625-1.226,0.94-2.654,0.94-4.248v-4.076L148.372,17.327
		L148.372,17.327z"/>
</g>
<circle fill="#5C82E7" cx="20.973" cy="11.585" r="2.375"/>
<circle fill="#5C82E7" cx="20.973" cy="22.336" r="2.375"/>
<g>
	<path fill="#FFFFFF" d="M38.274,40.255h1.913v13.631h-1.913V40.255z M39.258,46.779h4.359c0.413,0,0.775-0.098,1.087-0.29
		c0.313-0.194,0.555-0.47,0.727-0.825c0.172-0.355,0.258-0.766,0.258-1.229c0-0.47-0.086-0.881-0.258-1.237
		c-0.172-0.356-0.414-0.634-0.727-0.829c-0.313-0.197-0.675-0.296-1.087-0.296h-4.359v-1.818h4.293c0.813,0,1.528,0.173,2.147,0.521
		c0.619,0.348,1.099,0.836,1.439,1.468c0.341,0.631,0.511,1.362,0.511,2.192c0,0.832-0.17,1.563-0.511,2.189
		c-0.34,0.628-0.82,1.113-1.439,1.458c-0.619,0.344-1.334,0.517-2.147,0.517h-4.293V46.779z"/>
	<path fill="#FFFFFF" d="M53.096,40.255h1.631l5.025,13.631h-2.063l-3.778-10.997l-3.778,10.997H48.07L53.096,40.255z
		 M50.386,49.076h7.172v1.818h-7.172V49.076z"/>
	<path fill="#FFFFFF" d="M61.814,40.245h1.913v13.641h-1.913V40.245z M62.649,46.302h4.65c0.362,0,0.684-0.088,0.965-0.263
		c0.281-0.175,0.499-0.424,0.652-0.745s0.229-0.692,0.229-1.11c0-0.42-0.077-0.789-0.229-1.11c-0.153-0.322-0.369-0.57-0.647-0.746
		c-0.278-0.175-0.602-0.263-0.97-0.263h-4.65v-1.818h4.575c0.788,0,1.48,0.163,2.077,0.486c0.597,0.326,1.06,0.787,1.388,1.384
		c0.328,0.598,0.492,1.286,0.492,2.067c0,0.78-0.166,1.471-0.497,2.066c-0.332,0.598-0.795,1.059-1.392,1.383
		c-0.597,0.325-1.286,0.487-2.067,0.487H62.65L62.649,46.302L62.649,46.302z M66.361,47.698l1.903-0.433l3.488,6.619h-2.269
		L66.361,47.698z"/>
	<path fill="#FFFFFF" d="M72.455,40.255h9.619v1.818h-9.619V40.255z M76.308,41.37h1.913v12.516h-1.913V41.37z"/>
	<path fill="#FFFFFF" d="M83.948,40.255h1.734l6.666,10.537l-0.225,0.244V40.255h1.893v13.621h-1.752l-6.646-10.378l0.225-0.243
		v10.621h-1.895V40.255z"/>
	<path fill="#FFFFFF" d="M97.392,40.255h1.912v13.631h-1.912V40.255z M98.32,40.255h7.828v1.818H98.32V40.255z M98.32,46.208h6.798
		v1.817H98.32V46.208z M98.32,52.066h7.828v1.818H98.32V52.066z"/>
	<path fill="#FFFFFF" d="M108.868,40.245h1.911v13.641h-1.911V40.245z M109.702,46.302h4.649c0.362,0,0.685-0.088,0.966-0.263
		s0.498-0.424,0.65-0.745c0.154-0.321,0.229-0.692,0.229-1.11c0-0.42-0.075-0.789-0.229-1.11c-0.152-0.322-0.368-0.57-0.646-0.746
		c-0.278-0.175-0.603-0.263-0.971-0.263h-4.649v-1.818h4.574c0.788,0,1.479,0.163,2.077,0.486c0.597,0.326,1.06,0.787,1.388,1.384
		c0.327,0.598,0.491,1.286,0.491,2.067c0,0.78-0.165,1.471-0.497,2.066c-0.331,0.598-0.795,1.059-1.393,1.383
		c-0.596,0.325-1.285,0.487-2.066,0.487h-4.574V46.302z M113.415,47.698l1.902-0.433l3.487,6.619h-2.269L113.415,47.698z"/>
	<path fill="#FFFFFF" d="M124.12,54.025c0,0-0.293-0.063-0.881-0.188s-1.136-0.313-1.646-0.563c-0.51-0.25-0.985-0.563-1.43-0.938
		l1.19-1.463c0.519,0.45,1.091,0.788,1.716,1.013c0.625,0.227,1.303,0.338,2.034,0.338c0.987,0,1.753-0.183,2.297-0.549
		c0.544-0.365,0.815-0.883,0.815-1.552v-0.009c0-0.475-0.123-0.852-0.37-1.131c-0.247-0.277-0.565-0.483-0.956-0.618
		c-0.391-0.134-0.896-0.259-1.514-0.37c-0.021-0.006-0.041-0.01-0.063-0.01s-0.042-0.002-0.061-0.01l-0.142-0.027
		c-0.913-0.156-1.655-0.333-2.228-0.529c-0.571-0.197-1.062-0.557-1.467-1.078c-0.406-0.521-0.609-1.264-0.609-2.227v-0.01
		c0-0.844,0.189-1.563,0.566-2.16c0.379-0.598,0.931-1.053,1.655-1.364c0.726-0.313,1.597-0.47,2.615-0.47
		c0.487,0,0.967,0.054,1.438,0.16c0.473,0.105,0.938,0.264,1.396,0.474c0.459,0.209,0.911,0.474,1.354,0.792l-1.086,1.52
		c-0.521-0.382-1.037-0.668-1.553-0.857c-0.516-0.19-1.033-0.286-1.552-0.286c-0.933,0-1.654,0.187-2.17,0.558
		c-0.517,0.372-0.772,0.898-0.772,1.58v0.01c0,0.469,0.131,0.838,0.397,1.105c0.266,0.27,0.597,0.468,0.993,0.596
		c0.396,0.129,0.947,0.262,1.654,0.398c0.024,0.006,0.049,0.011,0.07,0.014s0.045,0.008,0.07,0.014
		c0.029,0.008,0.064,0.014,0.103,0.021c0.038,0.006,0.072,0.013,0.104,0.019c0.824,0.17,1.514,0.369,2.066,0.601
		s1.016,0.604,1.387,1.12c0.373,0.516,0.559,1.221,0.559,2.113v0.02c0,0.832-0.195,1.543-0.59,2.133
		c-0.395,0.592-0.965,1.041-1.711,1.352c-0.747,0.31-1.648,0.463-2.705,0.463C124.448,54.025,124.12,54.025,124.12,54.025z"/>
</g>
</svg>
