<?xml version="1.0" encoding="utf-8"?>
<!-- Generator: Adobe Illustrator 16.0.0, SVG Export Plug-In . SVG Version: 6.00 Build 0)  -->
<!DOCTYPE svg PUBLIC "-//W3C//DTD SVG 1.1//EN" "http://www.w3.org/Graphics/SVG/1.1/DTD/svg11.dtd">
<svg version="1.1" id="Layer_1" xmlns="http://www.w3.org/2000/svg" xmlns:xlink="http://www.w3.org/1999/xlink" x="0px" y="0px"
	 width="60px" height="60px" viewBox="0 0 60 60" enable-background="new 0 0 60 60" xml:space="preserve">
<g>
	<path d="M43.43,49.334H16.57c-2.75,0-4.987-2.237-4.987-4.987v-26.86c0-2.75,2.237-4.987,4.987-4.987H43.43
		c2.75,0,4.987,2.237,4.987,4.987v26.86C48.417,47.097,46.18,49.334,43.43,49.334z M16.57,13.5c-2.198,0-3.987,1.789-3.987,3.987
		v26.86c0,2.198,1.789,3.987,3.987,3.987H43.43c2.198,0,3.987-1.789,3.987-3.987v-26.86c0-2.198-1.789-3.987-3.987-3.987H16.57z"/>
</g>
<g>
	<path d="M21.609,25.785c-2.707,0-4.91,2.203-4.91,4.91c0,2.701,2.203,4.898,4.91,4.898c1.111,0,2.191-0.379,3.067-1.071
		l0.914,0.914c0.14,0.14,0.374,0.135,0.503,0.006l0.187-0.174c0.076-0.076,0.115-0.181,0.107-0.285
		c-0.008-0.099-0.057-0.188-0.107-0.222l-0.912-0.922c0.736-0.876,1.139-1.983,1.139-3.144
		C26.507,27.988,24.31,25.785,21.609,25.785z M22.424,31.391l-0.203,0.206c-0.106,0.143-0.11,0.335,0.013,0.494l1.763,1.742
		c-0.682,0.528-1.502,0.806-2.388,0.806c-2.174,0-3.943-1.77-3.943-3.944c0-2.181,1.769-3.956,3.943-3.956
		c2.175,0,3.944,1.774,3.944,3.956c0,0.893-0.305,1.757-0.864,2.462l-1.744-1.755C22.807,31.265,22.555,31.261,22.424,31.391z"/>
	<path d="M33.844,33.764c0.527-0.817,0.801-1.848,0.813-3.069c0-0.2-0.164-0.37-0.358-0.37h-0.202c-0.204,0-0.358,0.164-0.358,0.374
		c-0.027,0.905-0.207,1.675-0.535,2.297l-2.189-2.674c0.865-0.573,1.708-1.287,1.708-2.387c0-1.25-0.821-2.09-2.043-2.09
		c-1.233,0-2.03,0.82-2.03,2.09c0,0.775,0.459,1.512,0.995,2.199c-1.044,0.684-2.154,1.473-2.154,2.747
		c0,1.749,1.604,2.664,3.188,2.664c0.939,0,1.856-0.383,2.556-1.06l0.842,1.008c0.067,0.091,0.178,0.145,0.295,0.145
		c0.092,0,0.176-0.034,0.195-0.062l0.208-0.141c0.122-0.122,0.158-0.359,0.03-0.489L33.844,33.764z M30.678,26.799
		c0.644,0,1.076,0.457,1.076,1.136c0,0.626-0.505,1.119-1.334,1.683c-0.369-0.472-0.818-1.105-0.818-1.683
		C29.602,27.386,29.885,26.799,30.678,26.799z M30.22,30.845l2.42,2.913c-0.526,0.537-1.2,0.82-1.963,0.82
		c-1.07,0-2.223-0.531-2.223-1.697C28.455,32.024,29.289,31.44,30.22,30.845z"/>
	<path d="M43.911,34.975l-3.512-8.742c-0.097-0.256-0.327-0.421-0.586-0.421s-0.489,0.165-0.585,0.417l-3.513,8.747
		c-0.039,0.098-0.035,0.209,0.011,0.305c0.043,0.092,0.119,0.16,0.199,0.187l0.182,0.072l0.142,0.026
		c0.158,0,0.296-0.089,0.349-0.225l1.073-2.664h4.285l1.072,2.665c0.056,0.136,0.189,0.224,0.34,0.224l0.315-0.093
		c0.097-0.031,0.174-0.1,0.217-0.192C43.946,35.185,43.95,35.073,43.911,34.975z M38.05,31.711l1.759-4.406l1.768,4.406H38.05z"/>
</g>
</svg>
