<?xml version="1.0" encoding="utf-8"?>
<!-- Generator: Adobe Illustrator 16.0.0, SVG Export Plug-In . SVG Version: 6.00 Build 0)  -->
<!DOCTYPE svg PUBLIC "-//W3C//DTD SVG 1.1//EN" "http://www.w3.org/Graphics/SVG/1.1/DTD/svg11.dtd">
<svg version="1.1" id="Layer_1" xmlns="http://www.w3.org/2000/svg" xmlns:xlink="http://www.w3.org/1999/xlink" x="0px" y="0px"
	 width="60px" height="60px" viewBox="0 0 60 60" enable-background="new 0 0 60 60" xml:space="preserve">
<g>
	<path d="M43.43,49.334H16.57c-2.75,0-4.987-2.237-4.987-4.987v-26.86c0-2.75,2.237-4.987,4.987-4.987H43.43
		c2.75,0,4.987,2.237,4.987,4.987v26.86C48.417,47.097,46.18,49.334,43.43,49.334z M16.57,13.5c-2.198,0-3.987,1.789-3.987,3.987
		v26.86c0,2.198,1.789,3.987,3.987,3.987H43.43c2.198,0,3.987-1.789,3.987-3.987v-26.86c0-2.198-1.789-3.987-3.987-3.987H16.57z"/>
</g>
<g>
	<path d="M35.934,40.038c-0.194,0-0.399-0.06-0.61-0.178l-4.693-2.616c-0.314-0.176-0.946-0.176-1.259,0l-4.694,2.616
		c-0.486,0.272-0.972,0.217-1.243-0.112c-0.129-0.158-0.265-0.444-0.172-0.915l1.038-5.271c0.073-0.37-0.113-0.941-0.39-1.199
		l-3.939-3.655c-0.484-0.45-0.414-0.875-0.361-1.037c0.052-0.162,0.246-0.547,0.901-0.626l5.336-0.641
		c0.375-0.045,0.86-0.398,1.019-0.741l2.259-4.876c0.278-0.6,0.704-0.664,0.874-0.664s0.596,0.064,0.874,0.664l2.26,4.877
		c0.158,0.342,0.644,0.695,1.019,0.74l5.335,0.641c0.656,0.08,0.85,0.465,0.902,0.627c0.052,0.162,0.122,0.587-0.362,1.036
		l-3.938,3.655c-0.276,0.258-0.462,0.829-0.39,1.199l1.038,5.271c0.093,0.471-0.042,0.757-0.171,0.915
		C36.412,39.935,36.188,40.038,35.934,40.038z M20.71,28.028l3.881,3.602c0.535,0.497,0.831,1.41,0.69,2.125l-1.023,5.193
		l4.624-2.577c0.61-0.342,1.624-0.342,2.234,0l4.624,2.577l-1.022-5.193c-0.142-0.715,0.155-1.628,0.689-2.125l3.881-3.602
		l-5.256-0.631c-0.713-0.086-1.507-0.663-1.808-1.314L30,21.279l-2.226,4.804c-0.307,0.662-1.083,1.226-1.807,1.313L20.71,28.028z"
		/>
</g>
</svg>
