<?xml version="1.0" encoding="utf-8"?>
<!-- Generator: Adobe Illustrator 16.0.0, SVG Export Plug-In . SVG Version: 6.00 Build 0)  -->
<!DOCTYPE svg PUBLIC "-//W3C//DTD SVG 1.1//EN" "http://www.w3.org/Graphics/SVG/1.1/DTD/svg11.dtd">
<svg version="1.1" id="Layer_1" xmlns="http://www.w3.org/2000/svg" xmlns:xlink="http://www.w3.org/1999/xlink" x="0px" y="0px"
	 width="60px" height="60px" viewBox="0 0 60 60" enable-background="new 0 0 60 60" xml:space="preserve">
<g>
	<path d="M52.521,26.058h-1v-8.446c0-1.088-0.885-1.973-1.973-1.973H33.057c-1.088,0-1.974,0.885-1.974,1.973h-1
		c0-1.088-0.885-1.973-1.974-1.973H11.619c-1.088,0-1.974,0.885-1.974,1.973v8.446h-1v-8.446c0-1.639,1.334-2.973,2.974-2.973
		h16.491c1.03,0,1.94,0.526,2.474,1.325c0.534-0.798,1.443-1.325,2.474-1.325h16.491c1.639,0,2.973,1.333,2.973,2.973V26.058z"/>
</g>
<g>
	<path d="M51.888,44.357H9.277c-1.126,0-2.042-0.916-2.042-2.043V27.799c0-1.126,0.916-2.043,2.042-2.043h2.43
		c1.126,0,2.042,0.917,2.042,2.043v7.846h33.667v-7.846c0-1.126,0.916-2.043,2.042-2.043h2.429c1.127,0,2.044,0.917,2.044,2.043
		v14.515C53.932,43.441,53.015,44.357,51.888,44.357z M9.277,26.756c-0.575,0-1.042,0.468-1.042,1.043v14.515
		c0,0.575,0.468,1.043,1.042,1.043h42.61c0.575,0,1.044-0.468,1.044-1.043V27.799c0-0.575-0.469-1.043-1.044-1.043h-2.429
		c-0.574,0-1.042,0.468-1.042,1.043v8.846H12.75v-8.846c0-0.575-0.468-1.043-1.042-1.043H9.277z"/>
</g>
<g>
	<rect x="30.083" y="17.611" width="1" height="8.446"/>
</g>
<g>
	<polygon points="18.729,48.665 10.99,48.665 10.99,43.857 11.99,43.857 11.99,47.665 17.729,47.665 17.729,44.263 18.729,44.263 	
		"/>
</g>
<g>
	<polygon points="50.177,48.665 42.438,48.665 42.438,43.857 43.438,43.857 43.438,47.665 49.177,47.665 49.177,44.263 
		50.177,44.263 	"/>
</g>
</svg>
